<svg xmlns="http://www.w3.org/2000/svg" width="95.5" height="91.06" viewBox="0 0 95.5 91.06">
  <metadata><?xpacket begin="﻿" id="W5M0MpCehiHzreSzNTczkc9d"?>
<x:xmpmeta xmlns:x="adobe:ns:meta/" x:xmptk="Adobe XMP Core 5.6-c138 79.159824, 2016/09/14-01:09:01        ">
   <rdf:RDF xmlns:rdf="http://www.w3.org/1999/02/22-rdf-syntax-ns#">
      <rdf:Description rdf:about=""/>
   </rdf:RDF>
</x:xmpmeta>
                                                                                                    
                                                                                                    
                                                                                                    
                                                                                                    
                                                                                                    
                                                                                                    
                                                                                                    
                                                                                                    
                                                                                                    
                                                                                                    
                                                                                                    
                                                                                                    
                                                                                                    
                                                                                                    
                                                                                                    
                                                                                                    
                                                                                                    
                                                                                                    
                                                                                                    
                                                                                                    
                           
<?xpacket end="w"?></metadata>
<defs>
    <style>
      .cls-1 {
        fill: #727272;
        fill-rule: evenodd;
      }
    </style>
  </defs>
  <path id="new_vector_shape_done" class="cls-1" d="M911.5,958c29.295-.441,45.944,10.684,53.5,31.5,6.806,18.75-4.008,47.85-17,52V1041a7.292,7.292,0,0,1-1-4c12.093-7.09,20.966-30.73,13-48.5A44.089,44.089,0,0,0,937,966c-4.876-2.16-13.814-5.919-22-4-4.766,1.118-10.4,1.889-14.5,4-14.308,7.375-30.937,28.252-22.5,51.5a59.146,59.146,0,0,0,8.5,15c1.987,2.64,5.1,2.57,5.5,7a9.732,9.732,0,0,0-1,2h-1l-8-7.5a67.758,67.758,0,0,1-6-9.5c-11.776-23.74,2.149-49.981,17.5-59.5a57.79,57.79,0,0,1,10.5-5C906.681,959.076,909.618,959.6,911.5,958Zm5,8h6c3.225,3.662,6.478,3.669,6.5,11-1,1.089-1.1,2.76-2,4-0.975,1.339-2.676,1.379-3.5,3h18c1.343,2.153,1.58,4.543,1.5,8.5-0.615.41-3.685,1.87-4,2.5v43.5c4.188,1.44,4.268,3.24,4,9-2.985,1.99-8.868,1.5-14,1.5H897a29.306,29.306,0,0,1-1-8.5c0.41-.24,3.773-1.61,4-2V995c-3.859-1.925-4.243-3.439-4-9.5,3.994-2.439,13.148-1.573,19.5-1.5v-1c-3.782-.967-5.571-4.674-5.5-9.5,1.124-1.443,1.324-3.611,2.5-5C913.474,967.349,915.493,967.177,916.5,966Zm1.5,28H906.5c-1,2.949-.54,8.21-0.5,12h1c2.395-3.66,7.355-8.1,11-10.5V994Zm14,2.5L913,1016l-7,6v14h1c1.712-2.55,4.054-4.15,6.5-6l13-13.5,6.5-6v-14h-1Zm1,42.5v-12.5h-1c-2.967,4.44-9.639,7.33-11.5,12.5H933Z" transform="translate(-871.594 -958)"/>
</svg>
