<svg xmlns="http://www.w3.org/2000/svg" width="63" height="78.09" viewBox="0 0 63 78.09">
  <metadata><?xpacket begin="﻿" id="W5M0MpCehiHzreSzNTczkc9d"?>
<x:xmpmeta xmlns:x="adobe:ns:meta/" x:xmptk="Adobe XMP Core 5.6-c138 79.159824, 2016/09/14-01:09:01        ">
   <rdf:RDF xmlns:rdf="http://www.w3.org/1999/02/22-rdf-syntax-ns#">
      <rdf:Description rdf:about=""/>
   </rdf:RDF>
</x:xmpmeta>
                                                                                                    
                                                                                                    
                                                                                                    
                                                                                                    
                                                                                                    
                                                                                                    
                                                                                                    
                                                                                                    
                                                                                                    
                                                                                                    
                                                                                                    
                                                                                                    
                                                                                                    
                                                                                                    
                                                                                                    
                                                                                                    
                                                                                                    
                                                                                                    
                                                                                                    
                                                                                                    
                           
<?xpacket end="w"?></metadata>
<defs>
    <style>
      .cls-1 {
        fill: #727272;
        fill-rule: evenodd;
      }
    </style>
  </defs>
  <path id="new_vector_shape_done" class="cls-1" d="M579.5,1259c4.524,4.23.566,16.6,6.5,19.5v0.5h0.5v-0.5c1.389-1.42,2.263-3.43,4-4.5,8.075-4.97,20.851-1.47,24,5,0.5-.17,1-0.33,1.5-0.5,0.683-2.41,2.325-5.05,3-7.5,1.2-4.38.546-8.42,2-12h0.5v0.5c3.786,5.09,1.373,14.62,3.5,21.5,2.447,7.92,6.895,12.22,7,22a21.815,21.815,0,0,0-5.5,8c-0.167,2.67-.333,5.33-0.5,8a25.918,25.918,0,0,1-10,14c-13.3,8.67-33.238,2.56-39-8.5-2.154-4.13-.932-10.77-3-15-2.456-5.02-5.072-4.28-5-13C577.614,1288.8,574.76,1270.69,579.5,1259Zm13.5,25v1.5h1c0.71,0.45,12.4.33,14,0V1284c-2.915-.46-5.987-2.45-10-1.5C596.364,1282.89,594.886,1283.7,593,1284Z" transform="translate(-569 -1259)"/>
</svg>
