<svg xmlns="http://www.w3.org/2000/svg" width="23.219" height="21.53" viewBox="0 0 23.219 21.53">
  <metadata><?xpacket begin="﻿" id="W5M0MpCehiHzreSzNTczkc9d"?>
<x:xmpmeta xmlns:x="adobe:ns:meta/" x:xmptk="Adobe XMP Core 5.6-c138 79.159824, 2016/09/14-01:09:01        ">
   <rdf:RDF xmlns:rdf="http://www.w3.org/1999/02/22-rdf-syntax-ns#">
      <rdf:Description rdf:about=""
            xmlns:xmp="http://ns.adobe.com/xap/1.0/">
         <xmp:CreatorTool>Adobe Photoshop CS5 Macintosh</xmp:CreatorTool>
      </rdf:Description>
   </rdf:RDF>
</x:xmpmeta>
                                                                                                    
                                                                                                    
                                                                                                    
                                                                                                    
                                                                                                    
                                                                                                    
                                                                                                    
                                                                                                    
                                                                                                    
                                                                                                    
                                                                                                    
                                                                                                    
                                                                                                    
                                                                                                    
                                                                                                    
                                                                                                    
                                                                                                    
                                                                                                    
                                                                                                    
                                                                                                    
                           
<?xpacket end="w"?></metadata>
<defs>
    <style>
      .cls-1 {
        fill: #727272;
        fill-rule: evenodd;
      }
    </style>
  </defs>
  <path id="new_vector_shape_done" class="cls-1" d="M769,989h1c-0.035,3.511.95,7.413,4,8,3.942-5.816,9.965-1.038,14.5,0,0.7-1.594,2-7.071,3.5-8v11.5c-0.76.95-.894,1.79-1,3.5-2.285,1.88-4.5,4.9-7.5,6-6.394,2.35-13.124-3.72-13.5-8C768.193,999.678,768.924,992.963,769,989Zm11,8.5a11.552,11.552,0,0,1-3.5,1,5.489,5.489,0,0,1-1,1.5,1.685,1.685,0,0,0,.5,1c0.733,1.26.22,0.77,2,1,2.111-2.715,3.984-.46,7,0a1.685,1.685,0,0,1,.5-1,1.685,1.685,0,0,0-.5-1C784.2,997.945,782.293,997.906,780,997.5Z" transform="translate(-768.781 -989)"/>
</svg>
