<svg xmlns="http://www.w3.org/2000/svg" width="20.562" height="20" viewBox="0 0 20.562 20">
  <metadata><?xpacket begin="﻿" id="W5M0MpCehiHzreSzNTczkc9d"?>
<x:xmpmeta xmlns:x="adobe:ns:meta/" x:xmptk="Adobe XMP Core 5.6-c138 79.159824, 2016/09/14-01:09:01        ">
   <rdf:RDF xmlns:rdf="http://www.w3.org/1999/02/22-rdf-syntax-ns#">
      <rdf:Description rdf:about=""
            xmlns:xmp="http://ns.adobe.com/xap/1.0/">
         <xmp:CreatorTool>Adobe Photoshop CS5 Macintosh</xmp:CreatorTool>
      </rdf:Description>
   </rdf:RDF>
</x:xmpmeta>
                                                                                                    
                                                                                                    
                                                                                                    
                                                                                                    
                                                                                                    
                                                                                                    
                                                                                                    
                                                                                                    
                                                                                                    
                                                                                                    
                                                                                                    
                                                                                                    
                                                                                                    
                                                                                                    
                                                                                                    
                                                                                                    
                                                                                                    
                                                                                                    
                                                                                                    
                                                                                                    
                           
<?xpacket end="w"?></metadata>
<defs>
    <style>
      .cls-1 {
        fill: #727272;
        fill-rule: evenodd;
      }
    </style>
  </defs>
  <path id="new_vector_shape_done" class="cls-1" d="M643,991h4c0.443,0.7,1.731,1.408,2,2v4c1.812,3.91,10.739,8.15,12.5,13h-4c-1.385-2.18-4.413-5.6-7-6.5v0.5c-3.849,3.16,1.039,7.06-7.5,7-1.318-1.97-2.027-2.31-2-6,0.752-.45,1.374-1.71,2-2,3.247-1.5,4.246.99,5.5-2.5C643.352,997.789,637.835,998.611,643,991Zm14.5,1h4v1c-2.908,1.981-4.258,6-8.5,6.5C651.893,995.9,655.824,994.418,657.5,992Zm-13,1c-0.776,1.244-1.488,1.261-1,2.5a2.728,2.728,0,0,0,2,1.5v-0.5a2.728,2.728,0,0,0,1.5-2A9.025,9.025,0,0,0,644.5,993Zm0,12c-0.776,1.24-1.488,1.26-1,2.5a2.743,2.743,0,0,0,2,1.5v-0.5a2.727,2.727,0,0,0,1.5-2A9.025,9.025,0,0,0,644.5,1005Z" transform="translate(-640.938 -991)"/>
</svg>
