<svg xmlns="http://www.w3.org/2000/svg" width="225.438" height="30.063" viewBox="0 0 225.438 30.063">
  <metadata><?xpacket begin="﻿" id="W5M0MpCehiHzreSzNTczkc9d"?>
<x:xmpmeta xmlns:x="adobe:ns:meta/" x:xmptk="Adobe XMP Core 5.6-c138 79.159824, 2016/09/14-01:09:01        ">
   <rdf:RDF xmlns:rdf="http://www.w3.org/1999/02/22-rdf-syntax-ns#">
      <rdf:Description rdf:about=""/>
   </rdf:RDF>
</x:xmpmeta>
                                                                                                    
                                                                                                    
                                                                                                    
                                                                                                    
                                                                                                    
                                                                                                    
                                                                                                    
                                                                                                    
                                                                                                    
                                                                                                    
                                                                                                    
                                                                                                    
                                                                                                    
                                                                                                    
                                                                                                    
                                                                                                    
                                                                                                    
                                                                                                    
                                                                                                    
                                                                                                    
                           
<?xpacket end="w"?></metadata>
<defs>
    <style>
      .cls-1 {
        fill: #727272;
        fill-rule: evenodd;
      }
    </style>
  </defs>
  <path id="new_vector_shape_done" class="cls-1" d="M68.5,29H80c1.385,2.63,1.062,7.875,1,12-0.847,1.679-.047,9.51,0,13a9.023,9.023,0,0,0-2,1.5H69C67.016,49.547,68.46,36.273,68.5,29ZM90,29h10.5v1c1.8,2.85.555,19.715,0.5,24.5l-1.5.5c-1.941,1.364-8.639.618-10-.5C87.894,52.032,88.885,31.116,90,29Zm19,0h11.5c0.986,3.381,1.03,8.693,1,13.5-2.638,2.589-.22,8.29,0,13H118a10.753,10.753,0,0,0-.5,3.5H113V57.5h2.5c0.829-2.433.538-6.762,0.5-10a18.713,18.713,0,0,1-1-3h-1a1.709,1.709,0,0,1-.5,1,28.978,28.978,0,0,1,0,10h-4C107.516,49.547,108.96,36.273,109,29Zm20.5,0H140c2.723,5.256,1.06,17.819,1,25a9.013,9.013,0,0,0-2,1.5,50.5,50.5,0,0,1-9.5-.5q-0.25-.75-0.5-1.5C127,50.405,128.706,32.026,129.5,29ZM149,29h11.5v1c1.8,2.85.555,19.715,0.5,24.5l-1.5.5c-1.92,1.248-7.613.566-10.5,0.5V29Zm20,0h5V55a14.455,14.455,0,0,1-4.5.5v-1C167.644,51.559,168.945,33.94,169,29Zm12.5,0h5a28.216,28.216,0,0,0,2,7.5H189c0.19-2.354.012-4.216,0-7.5h5V55h-0.5v0.5a5.274,5.274,0,0,0-3,.5,5.421,5.421,0,0,0-.5,3h-5V57.5h3c0.116-4.508-.291-7.67-1.5-10.5H186v8.5h-4C180.016,49.547,181.46,36.273,181.5,29ZM218,41a10.818,10.818,0,0,0-3.5,1c-1,2.949-.54,8.208-0.5,12a9.013,9.013,0,0,0-2,1.5,50.5,50.5,0,0,1-9.5-.5V54.5H202a58.706,58.706,0,0,1-.5-7L203,47c2.024-1.539,4.071.046,5.5-.5,1.271-.728.564,0.108,1-1.5H209V44.5a31.3,31.3,0,0,1-6.5-.5q-0.25-.75-0.5-1.5c-1.924-2.888-.154-11.1.5-13.5H213c1,1.885,1.061,4.787,1,8l-4,1.5a1.709,1.709,0,0,0,.5,1c0.919,0.619,2.852.544,4.5,0.5a1.8,1.8,0,0,1,1-.5c0.583-1.755.273-5.461,0.5-6.5C218.205,34.651,218.108,37.483,218,41Zm4-12h4.5v8.5h1v-1c1.274-1.629,2.163-5.172,2.5-7.5h5c-0.627,3.649-5.133,11.058-4,15,0.655,2.279,4.58,9.222,3.5,11-1.329.782-3.122,0.131-4,1.5-0.53.877-.3,1.091-0.5,2.5h-4.5V58H226V57.5c1.882-.071,1.758.236,2.5-1,1.968-2.849-.549-8.535-1.5-10.5h-0.5v9H226c-0.845.571-2.448,0.533-4,.5V29Zm20,0h5V55a14.455,14.455,0,0,1-4.5.5C240.516,49.547,241.96,36.273,242,29ZM177.5,59H173V57.5h2.5c2.086-6.251.543-17.193,0.5-24.5h0.5V32.5H177V33C178.884,35.986,177.555,53.984,177.5,59ZM198,59h-5V57.5h3c-0.071-7.422-1.63-18.645.5-25a1.712,1.712,0,0,1,1,.5C199.384,35.986,198.055,53.984,198,59Zm40.5-26.5-4,14c0.552,4.025,3.4,7.913,4,12.5H234V57.5h2.5c-0.277-4.922-2.6-7.974-3.5-12-0.592-2.645,3.038-10.874,4-13h1.5Zm12,26.5H246V57.5h2.5c2.086-6.251.543-17.193,0.5-24.5h0.5V32.5H250V33C251.884,35.986,250.555,53.984,250.5,59ZM83,33.5h1.5v1c1.616,2.477.119,8.65-.5,10.5a32.334,32.334,0,0,1,0,14H72.5L72,58c2.433-.828,6.762-0.538,10-0.5,1.435-2.727,1.062-8.26,1-12.5C82.2,43.5,82.938,36.708,83,33.5ZM93.5,59V57.5H102c2.913-4.791,1.572-16.671,1.5-24h1V34c1.746,2.76.556,18.868,0.5,23.5C102.484,59.233,98.06,59.1,93.5,59Zm32,0h-5V58a9.154,9.154,0,0,1,3-.5c-0.039-3.574-2.22-8.333-1.5-11,0.154-.57,1.839-2.1,2-3,0.369-2.069-.493-7.042-0.5-10h1V34c2.782,3.646.266,11.285-.5,13.5C122.8,50.983,125.158,55.835,125.5,59ZM143,33.5h1.5v1c2,3.095.294,21.474-.5,24.5H133.5V57.5a47.323,47.323,0,0,0,9-.5C144.5,51.015,143.043,40.524,143,33.5Zm20.5,0L165,34V57.5c-2.669,1.833-7.736,1.6-12.5,1.5V58c2.306-.786,6.4-0.538,9.5-0.5C164.913,52.709,163.572,40.829,163.5,33.5ZM76,34H73.5a16.444,16.444,0,0,0-.5,5,7.531,7.531,0,0,0,2,1V39.5C75.76,38.357,75.916,35.663,76,34Zm17.5,0c-0.068,5.169-.933,12.764.5,17h1c1.737-3.319,1.061-10.562,1-15.5a2.551,2.551,0,0,0,.5-1.5h-3ZM114,34a19.664,19.664,0,0,0,.5,6,1.712,1.712,0,0,0,1-.5c0.715-1.021,1.057-4.9,1-5A4.325,4.325,0,0,0,114,34Zm22,0h-2.5c-1.345,4-.541,11.09-0.5,16a7.528,7.528,0,0,0,2,1V50.5C136.166,48.648,135.839,36.727,136,34Zm17.5,0c-0.068,5.169-.933,12.764.5,17h1c1.737-3.319,1.061-10.562,1-15.5a2.547,2.547,0,0,0,.5-1.5h-3Zm53,0a19.664,19.664,0,0,0,.5,6,1.712,1.712,0,0,0,1-.5c0.771-1.175,1.277-4.115,1.5-5.5h-3Zm-157,5h2c0.9,1.359,1.889,1.772,2.5,3.5H53.5c-0.794,1.386-2.221,3.041-3.5,2.5C46.178,42.8,47.5,41.838,49.5,39ZM265,39h1.5c1.047,1.553,2.047,1.709,2.5,4-1.553,1.047-1.709,2.047-4,2.5C262.5,42,262.6,42.5,265,39ZM206.5,59V57.5H215c1.812-3.188.922-10.046,1.5-13.5l1,0.5c1.085,3.21.54,8.93,0.5,13C215.484,59.233,211.06,59.1,206.5,59ZM56,44.5c1.55,0.612,1.131.188,1.5,2-1.553,1.047-1.709,2.047-4,2.5C53.239,46.73,54.678,46.411,56,44.5Zm20,0H73.5v1c-0.619.919-.544,2.852-0.5,4.5a7.531,7.531,0,0,0,2,1V50.5C75.845,49.233,75.962,46.411,76,44.5ZM273,45v1.5c-1.715,1.167-1.721,2.2-4.5,2.5V47.5C270.215,46.333,270.221,45.3,273,45Zm-66,3a7.852,7.852,0,0,0-.5,2.5H207V51h1a9.026,9.026,0,0,0,1.5-2.5h-1A2.55,2.55,0,0,0,207,48Z" transform="translate(-47.563 -29)"/>
</svg>
