<svg xmlns="http://www.w3.org/2000/svg" width="369.531" height="101.313" viewBox="0 0 369.531 101.313">
  <metadata><?xpacket begin="﻿" id="W5M0MpCehiHzreSzNTczkc9d"?>
<x:xmpmeta xmlns:x="adobe:ns:meta/" x:xmptk="Adobe XMP Core 5.6-c138 79.159824, 2016/09/14-01:09:01        ">
   <rdf:RDF xmlns:rdf="http://www.w3.org/1999/02/22-rdf-syntax-ns#">
      <rdf:Description rdf:about=""/>
   </rdf:RDF>
</x:xmpmeta>
                                                                                                    
                                                                                                    
                                                                                                    
                                                                                                    
                                                                                                    
                                                                                                    
                                                                                                    
                                                                                                    
                                                                                                    
                                                                                                    
                                                                                                    
                                                                                                    
                                                                                                    
                                                                                                    
                                                                                                    
                                                                                                    
                                                                                                    
                                                                                                    
                                                                                                    
                                                                                                    
                           
<?xpacket end="w"?></metadata>
<defs>
    <style>
      .cls-1 {
        fill: #727272;
        fill-rule: evenodd;
      }
    </style>
  </defs>
  <path id="new_vector_shape_done" class="cls-1" d="M302,133a2.417,2.417,0,0,0,1.5-.5c5.3-5.471,8.212-21.053,17.5-21.5,2.281,2.084,3.963,1.915,4,6.5-0.932.927-1.081,2.553-2,3.5-0.532.548-2.011,0.43-2.5,1l-0.5.5V123c-0.065.9,1.764,1.895,2,2.5v7c-1.12.98-1.1,2.272-2,3.5-2.542,3.452-7.305,4.076-13.5,4-1.1-.992-2.75-1.1-4-2-1.5-1.073-2.223-3.179-3.5-4.5-0.281-5.893-.24-11.05,5-11.5a1.708,1.708,0,0,0,.5,1C302.761,127.7,301.455,125.839,302,133Zm89.5,2.5a2.417,2.417,0,0,0,1.5-.5c6-2.173,10-13.745,14.5-15a9.51,9.51,0,0,0,2,1.5A32.741,32.741,0,0,0,407,133h1c2.627-4.21,6.511-8.54,9-13,1.123-2.012,1.976-6.074,4-7h2.5v0.5H424a1.708,1.708,0,0,1-.5,1c-0.672,2.591-2.364,4.216-3.5,6.5h1.5c0.953-.74,1.659-0.925,2.5-0.5,2.118,0.7,2.1,1.659,2,4.5-2.786,2.309-3.479,6.909-6,9.5l0.5,1.5c6.9-3.386,9.184-13.264,14-15,2.941-2.513,9.131.134,7.5,5-0.737,2.2-3.438,4.986-3.5,6.5,0.356,0.283.021,0.721,1,.5v-0.5c5.691-1.695,4.947-9.124,9.5-11.5,2.533-1.847,8.085-.914,9,1,2.065,3.548-4.238,9.058-5,12.5h1c1.149-1.574,3.226-3.569,5.5-4V131H460v1c-4.583,3.09-5.647,6.037-14,6a3.785,3.785,0,0,0-2.5-2v0.5c-2.751,3.123-2.534,8.5-8.5,8.5,0.666-4.118,3.754-6.3,5-10h-3.5c-1.673,2.608-4.016,3.126-8.5,3-0.786-1.315-1.206-2.071-3-2.5-1.556,2.059-3.709,2.587-7.5,2.5l-0.5-1.5c-1.832-2.982,4.267-9.645,5-13h-1.5l-4.5,4c-2.062,2.828-3.141,8.611-6.5,10-2.1,1.227-2.387-.843-4.5-0.5a26.673,26.673,0,0,1-6,1,5.015,5.015,0,0,0-3-2.5c-1.411,2.1-3.341,2.583-7,2.5a7.407,7.407,0,0,1-1.5-3.5c1.8-2.229,4.141-6.221,4.5-9.5h-0.5v-0.5H391V125c-5.742,5.616-7.309,13.1-19,13a14.092,14.092,0,0,1-2.5-4c-6,1.465-6.806,3.951-14,4-2.354-4.018-4.482-.273-10,0a7.407,7.407,0,0,1-1.5-3.5,23.266,23.266,0,0,0,5-9.5h-0.5v-0.5H348V125c-3.249,2.39-10.146,15.767-17,13-0.979-.4-0.736-1.136-2.5-1.5-1.174,1.519-2.684,1.582-5.5,1.5a8.843,8.843,0,0,1-1-5c4.989-4.185,4.075-11.923,12.5-13,1.72,1.635,3.913,2.73,4.5,5.5-2.168,1.73-5,6.857-5.5,10h2c3.014-3.952,8.008-7.053,10.5-11.5,0.88-1.57.139-5.513,1-7.5h1l0.5,1c0.485,0.717,0,1.949.5,3,1.165,2.459,3.273,2.341,3.5,6.5a19.86,19.86,0,0,0-4.5,8.5h2c1.3-1.769,3.717-2.746,5-4.5,3.2-4.373,7.24-17.822,13.5-18v0.5H369q-1.75,3.249-3.5,6.5c4.24-.017,4.756,1.585,4.5,6-1.259,1-4.006,5.583-3.5,6.5a1.808,1.808,0,0,0,1,.5c0.886-1.176,2.649-1.415,3.5-2.5,3.6-4.586,3.178-9.963,11-10.5,1.1,1.044,1.844.858,2.5,2.5a3.373,3.373,0,0,1,.5,2c-1.934,2.052-2.333,5.155-5,6.5-3.451,1.741-6.176-1.13-7,3.5a9.023,9.023,0,0,1,2,1.5c5.842-1.247,13.279-8.84,15-14-1.255-1.336-.913-2.607-0.5-4.5a7.855,7.855,0,0,1,2.5-.5c0.878,4.385,3.526,5.266,4,9.5A19.454,19.454,0,0,0,391.5,135.5ZM315,121l4.5-1c1.2-2.063,3.661-5.18-.5-6C317.509,116.27,315.587,117.722,315,121Zm49,2c-1.558,2.355-2.912,3.41-3,7.5a7.507,7.507,0,0,0,2,1c0.825-3.194,2.9-4.482,3.5-8A7.855,7.855,0,0,0,364,123Zm12,6.5a19.246,19.246,0,0,0,3.5-1c0.856-1.727,1.66-2.6,2-5h-1c-0.484-.126-0.19-0.392-0.5,0-2.224.82-2.355,2.69-4,4v2Zm62.5-6.5H436c-2.162,3.7-5.706,7.142-6.5,12a7.084,7.084,0,0,0,2,.5,1.808,1.808,0,0,1,1-.5C434.248,130.154,438.134,128.766,438.5,123Zm-125.5.5c-2.209,3.858-6.411,8.064-7,13h1c2.176,1.5,6.222,0,8-.5,1.294-1.93,2.682-2.431,3-5.5,1.608-2.292-.534-5.066-2-6A5.192,5.192,0,0,0,313,123.5Zm12.5,12h2c2.611-3.441,6-6.353,7.5-11a5.3,5.3,0,0,0-2.5-1,1.808,1.808,0,0,1-1,.5C329.671,127.734,326.275,131.023,325.5,135.5Zm119.5-1c1.709,0.1,2.169.457,3,0,2.547-1.794,5.67-7.2,6-11C449.569,124.156,445.714,130.254,445,134.5Zm-41.5-7c-1.5,2.385-3.667,3.954-5,6.5,1.6,0.469,1.748.87,4,1v-0.5H403l1.5-7h-1Zm-45,4a7.865,7.865,0,0,0-1,3.5,7.084,7.084,0,0,0,2,.5,1.808,1.808,0,0,1,1-.5v-1.5A16.642,16.642,0,0,0,358.5,131.5ZM234.5,163h18c0.642,0.917.984,0.856,1.5,2,1.805,2.033,1.022,8.323,1,12-0.018,3.109-1.716,5.131-1.5,7,0.036,0.313,1.4,1.674,1.5,2,1.616,5.236.144,17.847-3,19-3.064,2.188-12.146,1.069-17,1-1.393-2.673-1-7.842-1-12C234,186.24,232.468,169.041,234.5,163Zm35,0c5.528-.053,12.29-0.429,17,0.5,3.582,7.354,1.548,28.468,1.5,39-1.135,1.089-1.254,1.885-3,2.5-3.032,2.412-12.251.8-15.5,0a12.5,12.5,0,0,0-2-2.5V176c0-2.964-.761-8.493.5-10.5A8.219,8.219,0,0,1,269.5,163Zm31,0c6.146-.054,13.689-0.544,19,0.5,2.3,4.69,1.554,14,1.5,21-4.605,4.558-.227,13.41,0,21h-0.5V206c-1.936-.073-4.858-0.268-6,0.5-0.637,1.048-.343,3.962-1,5-1.156.77-4.053,0.56-6,.5a5.3,5.3,0,0,1-1-2.5h1c0.814-.5,3.193-0.48,4-1,1.734-2.705.567-11.152,0.5-15-0.819-1.207-.666-3.741-1.5-5a3.373,3.373,0,0,0-2-.5c-1.475,4.393-.541,12.169-0.5,17.5a22.637,22.637,0,0,1-6.5.5,1.808,1.808,0,0,0-1-.5V163Zm34.5,0h16c4.108,6.972,2.058,29.1,2,40-1.195.778-1.462,1.461-3,2-3.032,2.412-12.251.8-15.5,0-2.94-4.695-3.539-34.634-1-41A5.489,5.489,0,0,0,335,163Zm31,0h18a12.5,12.5,0,0,0,2,2.5V203c-1.195.778-1.462,1.461-3,2-2.82,2.178-11.865,1.074-16.5,1-1.163-3.512-.5-9.617-0.5-14V163Zm33,0h7.5c1.032,3.117.5,8.538,0.5,12.5V205c-1.8.96-4.4,1.06-7.5,1-1.163-3.512-.5-9.617-0.5-14V163Zm28,0c0.255,2.376,3.648,13.7,5,14.5V163h7.5c1.032,3.117.5,8.538,0.5,12.5V205c-1.713.917-4.014,1.058-7,1a25.07,25.07,0,0,1-.5,5.5h-1c-1.075.719-3.654,0.557-5.5,0.5a5.489,5.489,0,0,0-1-1.5V210h0.5c1.029-1.187,2.686-1.086,5-1a47.066,47.066,0,0,0-3-19H427v2c-0.847,1.679-.047,9.51,0,13-1.713.917-4.014,1.058-7,1-1.532-2.98-1-8.983-1-13.5v-29C420.928,162.839,424.307,162.964,427,163Zm39,17c4.009,0.24,6.895,1.805,10-.5,1.087-1.661.565-6.43,0.5-9a1.808,1.808,0,0,1-.5-1h1V170c2.541,1.975,2.123,6.913,2,11.5-1.366.575-4.2,1.083-5.5,2-1.47,2.309-.557,14.637-0.5,18.5-1.194,1.279-1.081,2.3-3,3-3.266,2.4-12.506.81-16,0-1.851-3.144-2.066-6.979-2-12.5h0.5V192c1.977-.262,3.817-1.3,5.5-1.5,1.743-.211,3.759.981,6.5,1a10.75,10.75,0,0,0,.5-3.5c-2.659.08-7.772,0.637-9.5-.5a3.758,3.758,0,0,1-2.5-2c-1.146-1.436-1.849-17.451-.5-19.5,1.558-4.62,11.946-3.182,18-3,2.126,3.311,2.577,6.428,2.5,12.5C470.361,176.529,466.352,176.351,466,180Zm27-17v16h1c0.372-5.593,3.268-10.279,4.5-15.5,1.928-.661,5.307-0.536,8-0.5v1c-2.729,3.839-2.769,9.762-4.5,14.5-0.615,1.683-2.805,4.136-2,7,1.049,3.734,7.263,17.132,6,20-1.322.874-4.847,0.563-7,.5a28.168,28.168,0,0,1-.5,6H492a5.489,5.489,0,0,0-1-1.5V210h0.5c1.13-1.194,3.555-.608,5-1.5,1.194-1.833.566-7.218,0.5-10-1.733-2.428-1.446-8.45-4-10v17c-1.683.579-4.575,0.534-7,.5-1.532-2.98-1-8.983-1-13.5v-29C486.928,162.839,490.307,162.964,493,163Zm25.5,0H526v42.5a22.637,22.637,0,0,1-6.5.5,1.808,1.808,0,0,0-1-.5V163Zm-108,6h2c1.032,3.117.5,8.538,0.5,12.5v29a1.808,1.808,0,0,0-.5,1h-1c-1.156.77-4.053,0.56-6,.5v-1a2.546,2.546,0,0,1-.5-1.5,18.462,18.462,0,0,1,5.5-.5V169ZM443,209V169.5a7.855,7.855,0,0,1,2.5-.5c1.032,3.117.5,8.538,0.5,12.5v29a1.808,1.808,0,0,0-.5,1h-1c-1.156.77-4.053,0.56-6,.5a5.489,5.489,0,0,0-1-1.5v-1h1C439.419,208.881,441.352,208.956,443,209Zm69.5-40c-0.991,6.949-4.8,13.295-6.5,19.5-1.025,3.744,5.832,17.944,6.5,23h-1c-1.156.77-4.053,0.56-6,.5a5.489,5.489,0,0,0-1-1.5v-1h1c0.919-.619,2.852-0.544,4.5-0.5-0.991-7.218-5.618-13.575-6.5-20.5q3-9.748,6-19.5h3Zm17.5,0h2v42.5a22.637,22.637,0,0,1-6.5.5,5.3,5.3,0,0,1-1-2.5h1c0.919-.619,2.852-0.544,4.5-0.5V169Zm-271.5.5c1.436,0.56.921,0.087,1.5,1.5,1.926,2.2,1.076,9.575,1,13.5-0.041,2.122-1.69,4.176-1.5,5,0.087,0.378,1.388,1.62,1.5,2,1.1,3.711.128,14.844-.5,18-4.362,2.78-11.366,2.572-19,2.5a5.3,5.3,0,0,1-1-2.5h1c4.112-2.443,13.05,1.528,16-2,1.024-1.348,1.953-15,1-18-0.074-.232-1.485-1.424-1.5-1.5-0.223-1.125,1.269-2.156,1.5-3V169.5Zm33,0c3.219,1.859,2.5,5.993,2.5,11v28a1.808,1.808,0,0,0-.5,1c-4.524,2.891-8.893,2.579-16.5,2.5-0.98-1.258-1.861-1.261-2.5-3h15C294.454,201.131,292.038,180.708,291.5,169.5ZM325,209q-1.5-9-3-18c0.351-.8,2.113-1.208,2.5-2.5v-19h1V170c3.068,3.074,1.592,15.219,1.5,21-4.7,3.477-.237,13.545,0,20.5a22.637,22.637,0,0,1-6.5.5,5.489,5.489,0,0,0-1-1.5v-1h1C321.419,208.881,323.352,208.956,325,209Zm31.5-39.5c3.423,1.295,2.5,5.95,2.5,10.5v29c-5.39,3.589-7.512,3.1-16.5,3-1.279-1.194-2.3-1.081-3-3h15C358.667,202.448,357.709,179.529,356.5,169.5Zm33,0c3.5,1.281,2.5,5.917,2.5,10.5v29c-5.391,4.075-10.3,3.114-19.5,3a7.855,7.855,0,0,1-.5-2.5c3.865-1.3,10.73-.541,15.5-0.5l2.5-3C390.057,194.393,391.56,180.15,389.5,169.5ZM242,180h3.5v-0.5H246c-0.015-4.1.873-5.387,1-9a14.455,14.455,0,0,0-4.5-.5C241.671,172.433,241.962,176.762,242,180Zm33,18h3.5c2.042-6.118.543-16.835,0.5-24,1.292-.752,1.058-1.5,1-3.5a14.455,14.455,0,0,0-4.5-.5C273.41,176.277,274.96,190.355,275,198Zm34-28c-1.143,2.156-1.062,5.947-1,9.5a10.75,10.75,0,0,0,3.5.5v-0.5H312c-0.015-4.1.873-5.387,1-9A12.541,12.541,0,0,0,309,170Zm35,28V174h1v-3.5a12.541,12.541,0,0,0-4-.5c-2.493,4.82-1.055,20.416-1,27.5A12.541,12.541,0,0,0,344,198Zm33,0V174c0.827-1.522,1.309.3,1.5-3.5h-1c-0.775-.525-2.043-0.515-3.5-0.5-2.493,4.82-1.055,20.416-1,27.5A12.541,12.541,0,0,0,377,198Zm83-18h3.5c-0.015-4.761,1.339-5.454,1.5-9.5a14.455,14.455,0,0,0-4.5-.5v0.5H460V180Zm-256-1.5h1.5c0.979,1.391,5.427,4.722,4.5,6l-5,5.5h-0.5v-0.5C195.794,184.224,200.327,183.751,204,178.5Zm352.5,0H558c1.484,2.21,4.039,3.314,5,6a20.688,20.688,0,0,0-5.5,5.5,1.417,1.417,0,0,1-.5-0.5C548.535,184.356,552.829,183.7,556.5,178.5Zm-80,8.5c1.2,0.849,1.516,1.987,2.5,3,0.076,6.7.319,14.828-1,20-3.5,2.179-17.093,4.277-19-1h15C478.539,201.985,474.7,194.421,476.5,187ZM214,188c1.54,0.519,1.459.483,2,2h0.5v0.5H216l-5,5.5h-0.5v-0.5C207.094,192.963,212.431,190.212,214,188Zm28,0v10h3.5v-0.5H246c-0.021-4.254.872-5.826,1-9.5h-5Zm324.5,0c1.781,0.556,2.155.962,2.5,3-1.63.673-5.131,3.28-5.5,5H563C558.457,194.2,565.116,190.011,566.5,188ZM460,193.5V198h3c1.207-1.558,1.841-1.083,2-4Z" transform="translate(-199.469 -111)"/>
</svg>
