<svg xmlns="http://www.w3.org/2000/svg" width="370" height="153.156" viewBox="0 0 370 153.156">
  <metadata><?xpacket begin="﻿" id="W5M0MpCehiHzreSzNTczkc9d"?>
<x:xmpmeta xmlns:x="adobe:ns:meta/" x:xmptk="Adobe XMP Core 5.6-c138 79.159824, 2016/09/14-01:09:01        ">
   <rdf:RDF xmlns:rdf="http://www.w3.org/1999/02/22-rdf-syntax-ns#">
      <rdf:Description rdf:about=""/>
   </rdf:RDF>
</x:xmpmeta>
                                                                                                    
                                                                                                    
                                                                                                    
                                                                                                    
                                                                                                    
                                                                                                    
                                                                                                    
                                                                                                    
                                                                                                    
                                                                                                    
                                                                                                    
                                                                                                    
                                                                                                    
                                                                                                    
                                                                                                    
                                                                                                    
                                                                                                    
                                                                                                    
                                                                                                    
                                                                                                    
                           
<?xpacket end="w"?></metadata>
<defs>
    <style>
      .cls-1 {
        fill: #727272;
        fill-rule: evenodd;
      }
    </style>
  </defs>
  <path id="new_vector_shape_done" class="cls-1" d="M533.5,129h5c1.385,2.055,2.431,2.317,2.5,6-0.842.87-.746,1.956-1.5,3-0.986,1.366-2.662,1.275-3.5,3,2.205,1.7,2.122,4.962,2,9-6.23,6.854-5.252,8.749-17.5,7a80.111,80.111,0,0,0-5.5-6v-7.5c1.835-1.542,1.523-3.41,4.5-4a7.507,7.507,0,0,1,1,2c-2.987,1.852-3.541,5.894-2,9.5l1-.5C523.212,142.791,528.464,135.4,533.5,129ZM638,141h-1.5c-2.25,3.083-5.39,5.568-7.5,9-0.957,1.557-1.392,4.739-3,5.5h-3c-1.482-1.474-4.147.3-7.5,0.5-0.877-1.165-1.742-1.59-2.5-3-2.523,1.3-3.677,2.8-7.5,3-0.642-.917-0.984-0.856-1.5-2-1.835-3.2,3.635-7.853,4-12h-1c-1.881,5.751-10.128,13.981-18,14-1.233-1.282-3.436-3.738-5.5-4a17.929,17.929,0,0,1-11.5,4,7.359,7.359,0,0,0-3-3c-1.357,1.83-3.37,2.9-6.5,3-1.327-1.392-2.115-1.469-2.5-4,1.982-2.051,4.494-6.266,5-9.5a2.417,2.417,0,0,0-1.5.5c-4.6,4.446-7.243,12.373-15.5,13a6.6,6.6,0,0,0-3-2c-1.089,1.408-2.608,1.869-5,2-1.579-1.657-2.068-1.925-2-5.5,3-2.4,3.648-6.919,6-10l3.5-2.5h4c1.137,1.748,2.918,2.775,3.5,5-2.062,2.136-4.894,6.758-5.5,10a1.417,1.417,0,0,1,.5.5c3.263-1.411,11.613-9.708,12.5-13,0.575-2.136-.57-3.978.5-6.5h1c1.245,2.274,4.345,6.889,4.5,10.5-1.71,2.021-3.959,5.622-4.5,8.5a1.417,1.417,0,0,1,.5.5c5.242-2.4,8.8-8.147,11.5-13,2.313-4.161,2.407-9.461,9-9.5v1c-1.3.93-3.569,4.445-3,5.5,3.172,1.89,4.2.55,4,6-1.722,1.8-2.884,4.647-4,7h1.5L587,148l4-7.5,3.5-2.5a25.07,25.07,0,0,1,5.5.5q0.251,0.75.5,1.5a3.373,3.373,0,0,1,.5,2c-3.232,4.236-3.021,7.187-11,7-0.418,1.45-.7,1.287-1,3a7.407,7.407,0,0,0,3.5,1.5c5.117-4.026,11.3-7.2,13.5-14-0.886-.96-0.948-1.568-1-3.5a9.51,9.51,0,0,0,1.5-2,1.417,1.417,0,0,1,.5.5c1.165,0.869,4.723,7.668,5,9.5a18.744,18.744,0,0,0-4.5,9.5h1c1.775-1.825,4.46-2.959,6-5,2.725-3.612,5.586-7.193,8-11a8.862,8.862,0,0,1,2,1,4.325,4.325,0,0,1,.5,2.5c-1.6,2.061-1.988,6.565-2,10h1c2.705-4.393,6.239-9,9-13.5,0.667-1.085,2.3-6.011,3-6.5h4v1a28.154,28.154,0,0,0-4,6.5h1.5c0.775-.525,2.043-0.515,3.5-0.5a7.648,7.648,0,0,1,1,4.5c-2.353,2-5.029,7.358-6,10.5a1.417,1.417,0,0,1,.5.5c9.115-4.081,7.4-15.562,19.5-15.5,4.147,6.286-.373,6.624-1.5,12.5h1c1.209-1.092,3.066-1.661,4-3,2.4-3.443,2.483-9.166,8-9.5,0.982,0.54,3.754.077,6,0v0.5H674c0.664,6.219-3.5,8.342-5,13.5h1.5c1.075-1.74,2.587-3.555,5-4v0.5H676v1c-3.958,3.068-5.746,6.418-13,6.5-0.991-.981-1.741-1.188-2.5-2.5l-1.5.5c-0.523,3.705-3.455,8.989-8,9v-0.5h-0.5q0.251-.75.5-1.5c2.042-1.593,4.271-5.749,5-8.5h-1.5a16.288,16.288,0,0,1-10,3.5,8.557,8.557,0,0,0-3.5-3c-1.289,1.9-3.373,2.909-6.5,3-1.425-1.492-1.964-1.352-2-4.5C634.617,148.984,637.413,144.678,638,141Zm-107-2.5,4.5-1c0.892-1.524,1.659-2.269,2-4.5a1.808,1.808,0,0,1-.5-1h-2.5C533.211,134.039,531.525,135.674,531,138.5Zm50,1.5c-2.326,2.409-3.992,3.572-4,8.5a7.084,7.084,0,0,0,2,.5C580.033,146.084,584.175,142.466,581,140Zm72,0c-2.644,3.537-6.671,7.309-7.5,12.5a9.146,9.146,0,0,0,3,.5c0.216-.619.052-2.58,0.5-3.5,1.606-3.295,5.12-2.8,5.5-9Zm-124,1c-2.233,3.933-6.067,8.22-7,13a20.051,20.051,0,0,0,6,1c2.084-1.831,4.469-2.021,5.5-5,1.586-1.9.873-4.983,0-7C531.976,142.108,531.231,141.341,529,141Zm19.5,0c-2.075,3.324-4.381,7.963-7,11q0.251,0.75.5,1.5c2.936-1.182,9.668-8.7,8.5-11.5v-1h-2Zm43.5,6,3-.5c0.992-1.682,1.946-2.729,2.5-5a7.855,7.855,0,0,0-2.5-.5C593.806,143,592.445,144.16,592,147Zm69,5,3.5,0.5c1.808-3.683,5.153-6.7,5.5-11.5C665.7,141.639,661.7,147.925,661,152Zm-41.5-7c-1.473,2.47-4,4.2-5,7,1.859,0.3,1.649.665,3.5,1a7.507,7.507,0,0,0,1-2C620.36,149.418,620.471,146.167,619.5,145ZM574,149.5q-0.251,1.75-.5,3.5H576a7.084,7.084,0,0,0,.5-2C575.351,150.2,575.745,149.929,574,149.5Zm-123.5,31c6.477-.076,14-0.163,19,1,2.758,5.868,1.194,14.295,0,20-0.155.741,1.341,2,1.5,2.5,1.354,4.272-.242,15.5-1,18.5-4.478,2.1-12.8,1.546-19.5,1.5-1.076-3.249-.5-8.9-0.5-13V181.5A1.808,1.808,0,0,0,450.5,180.5Zm36.5,0c5.183-.093,11.832-0.479,15.5,1,3.582,7.354,1.548,28.468,1.5,39a3.565,3.565,0,0,0-1,2c-3.868,1.82-10.528,1.547-16.5,1.5-0.98-1.258-1.861-1.261-2.5-3-1.273-1.979-.5-7.557-0.5-10.5v-27C484.064,181.953,485.84,181.483,487,180.5ZM530,230h-7v-0.5h-0.5V228H527c1.839-3.52,1.061-11.328,1-16.5-0.819-1.207-.666-3.741-1.5-5a3.373,3.373,0,0,0-2-.5c-1.519,4.525-.541,12.528-0.5,18h-7c-1.163-3.512-.5-9.617-0.5-14V181c4.261-1.432,11.809-.541,17-0.5a9.783,9.783,0,0,0,2,1c2.3,4.69,1.554,14,1.5,21-5.892,5.981,2.5,15.163,0,21-1.408.85-5.105,0.126-6.5,1C529.781,225.575,529.943,228.154,530,230Zm22-49.5c5.183-.093,11.832-0.479,15.5,1,2.963,5.187,2.474,33.029,1,40.5-3.863,2.305-10.434,2.071-17,2-0.635-.842-1.365-1.158-2-2-1.617-2.117-1-7.361-1-11,0-9.347-.546-19.98.5-28.5A22.229,22.229,0,0,0,552,180.5Zm30,0c5.957-.093,14.142-0.749,18.5,1,2.963,5.187,2.474,33.029,1,40.5a12.5,12.5,0,0,0-2.5,2H582V180.5ZM615,224V181c1.8-.62,4.942-0.535,7.5-0.5v1c1.424,2.278.5,8.708,0.5,12v30C621.072,224.161,617.693,224.036,615,224Zm34,0v5.5c-1.8.62-4.942,0.535-7.5,0.5q-0.251-.75-0.5-1.5a1.417,1.417,0,0,0,.5-0.5l5-.5V218l-3-9.5H643c-0.372,3.843-.012,9.77,0,15-1.8.62-4.942,0.535-7.5,0.5-1.076-3.249-.5-8.9-0.5-13V181.5a1.808,1.808,0,0,0,.5-1h7V181H643c0.255,2.376,3.648,13.7,5,14.5V181c1.8-.62,4.942-0.535,7.5-0.5v1c1.424,2.278.5,8.708,0.5,12v30C654.317,224.079,651.425,224.034,649,224Zm32-18H671c-0.832-1.1-1.418-1.013-2-2.5-2.544-2.76-1.464-20.82,1.5-22,2.813-2.249,13.515-1.237,16.5,0,1.8,3.061,2.066,6.6,2,12a25.7,25.7,0,0,1-6.5,2,7.855,7.855,0,0,0-.5,2.5,10.75,10.75,0,0,0,3.5.5c1.572,1.1,5.285-.026,6.5-1,1.087-1.661.565-6.43,0.5-9a1.808,1.808,0,0,1-.5-1h1V188c2.541,1.975,2.123,6.913,2,11.5-0.949.479-4.651,1.152-5.5,2H689V220a3.565,3.565,0,0,0-1,2,12.5,12.5,0,0,0-2.5,2c-3.613.082-11.494,1.121-14-.5a3.758,3.758,0,0,1-2.5-2c-1.72-2.147-1.129-8.6-.5-11.5H671c2.584-2.047,5.816-.159,9.5,0A12.541,12.541,0,0,0,681,206Zm41.5-25.5c-0.681,5.154-7.654,19.456-6.5,23.5,1.8,6.306,5.562,12.876,6.5,20H715v6h-7.5q-0.251-.75-0.5-1.5a1.417,1.417,0,0,0,.5-0.5c7.143,0.278,5.831-4.481,5.5-11-1.767-2.474-1.382-8.422-4-10v17h-7.5c-1.076-3.249-.5-8.9-0.5-13V181.5a1.808,1.808,0,0,0,.5-1h7c1.432,4.261.541,11.809,0.5,17h1c0.023-2.122,4.247-16.466,5-17h7.5Zm19.5,0V224h-7c-1.163-3.512-.5-9.617-0.5-14V181C736.305,180.38,739.442,180.465,742,180.5ZM621,230v-2a25.07,25.07,0,0,0,5.5-.5V187a7.084,7.084,0,0,1,2-.5v1c1.424,2.278.5,8.708,0.5,12v30C627.072,230.161,623.693,230.036,621,230Zm38.5-43.5h2v1c1.424,2.278.5,8.708,0.5,12v30c-1.928.661-5.307,0.536-8,.5a1.708,1.708,0,0,0-.5-1v-0.5H654c0.93-.568,3.579-0.413,4.5-1,1.369-2.189.5-8.317,0.5-11.5V187.5A1.808,1.808,0,0,0,659.5,186.5Zm69,0c-0.644,7.55-4.956,13.754-6.5,20.5-0.91,3.975,5.8,17.623,6.5,23H721q-0.251-1-.5-2c1.737,0.066,4.016.167,5-.5a2.546,2.546,0,0,0,.5-1.5c-1.887-2.418-1.942-6.294-3-9.5-0.913-2.767-3.029-6.566-3.5-9.5-0.555-3.454,5.052-15.771,6-20A9.146,9.146,0,0,1,728.5,186.5Zm19.5,0V230h-7v-0.5h-0.5V228h5c1.033-3.117.5-8.538,0.5-12.5V187a1.417,1.417,0,0,0,.5-0.5H748ZM456.5,228c5.617,0.076,11.8-.017,16-1a12.5,12.5,0,0,1,2-2.5V208a19.965,19.965,0,0,0-1.5-2c-0.192-1.161,1.262-2.124,1.5-3V187.5h1V188c2.232,2.369,1.516,8.454,1.5,13-0.027,7.48,1.034,19.594-1,27.5-4.284,2.107-12.482,1.555-19,1.5v-0.5h-0.5V228Zm51-40.5c3.219,1.86,2.5,5.992,2.5,11V227c-5.189,3.993-8.553,3.129-17.5,3-0.948-1.016-1.436-.934-2-2.5h2c2.982,1.943,13.3.449,14.5-1.5,1.566-2.548,1-7.6,1-11.5C508,205.514,508.028,195.711,507.5,187.5Zm28,40.5h5a7.855,7.855,0,0,0,.5-2.5c-0.391-.588-3.209-16.116-3-16.5,0.356-.653,2.141-0.982,2.5-2V187.5h1V188c3.068,3.074,1.592,15.219,1.5,21-5.926,5.5,2.552,14.554,0,20.5-1.322.874-4.847,0.563-7,.5v-0.5h-0.5V228Zm37-40.5c3.356,1.255,2.5,5.546,2.5,10,0,9.705,1.3,21.726-.5,30.5a12.5,12.5,0,0,0-2.5,2H557.5a24.655,24.655,0,0,1-2-2.5h2c2.939,1.957,10.934.107,13.5-.5C574.725,220.612,573.616,196.785,572.5,187.5ZM588,230v-2c5.669,0.076,11.707-.053,16-1,3.282-5.614,3.152-31.109,1.5-39.5h1a7.507,7.507,0,0,1,1,2c1.26,2.012.5,7.533,0.5,10.5v27.5l-3,2.5H588ZM458.5,188c-0.829,2.433-.538,6.762-0.5,10a10.75,10.75,0,0,0,3.5.5v-1c0.733-1.139,1.479-7.223,1.5-9A14.455,14.455,0,0,0,458.5,188ZM491,216h3.5c2.042-6.118.543-16.835,0.5-24,1.292-.752,1.058-1.5,1-3.5a14.455,14.455,0,0,0-4.5-.5C489.41,194.277,490.96,208.355,491,216Zm34-28c-1.143,2.156-1.062,5.947-1,9.5a1.808,1.808,0,0,1,.5,1h3v-1c0.733-1.139,1.479-7.223,1.5-9A12.541,12.541,0,0,0,525,188Zm35,28V192h1v-3.5a12.541,12.541,0,0,0-4-.5c-2.493,4.82-1.055,20.416-1,27.5A12.541,12.541,0,0,0,560,216Zm33,0V192c0.827-1.522,1.309.3,1.5-3.5h-1c-0.775-.525-2.043-0.515-3.5-0.5-2.493,4.82-1.055,20.416-1,27.5A12.541,12.541,0,0,0,593,216Zm83-17.5h3V198h0.5c-0.015-4.761,1.339-5.454,1.5-9.5a14.455,14.455,0,0,0-4.5-.5v0.5H676v10ZM420,197h1.5c1.48,2.174,3.886,2.967,4.5,6a18.485,18.485,0,0,0-5,5h-0.5v-0.5c-1.872-1.16-5-3.488-5.5-6C417.083,200.812,418.912,198.7,420,197Zm352.5,0H774a18.485,18.485,0,0,0,5,5v0.5h-0.5l-5,5.5a1.417,1.417,0,0,1-.5-0.5c-2.325-1.418-5.1-4.09-5-6.5ZM692,205.5a2.417,2.417,0,0,1,1.5.5c3.108,3.261,1.662,16.427,1,21.5l-3,2.5c-3.613.082-11.494,1.121-14-.5-1.54-.519-1.459-0.483-2-2h2c1.184,0.8,4.029.5,6,.5,2.7-.006,5.348.119,7-1C693.9,224.7,693.064,210.318,692,205.5ZM458,206v10h3.5v-0.5H462c-0.022-4.246.883-5.719,1-9.5h-5Zm-28.5.5H431c0.4,0.607,1.805,1.432,1.5,2.5-0.181.634-5.083,5.3-6,5C422.3,212.626,428.592,207.74,429.5,206.5Zm352.5,0h1.5c0.8,1.149,1.071.755,1.5,2.5-1.035.787-4.5,5.448-6,5C774.75,212.729,781.156,207.683,782,206.5ZM676,216h3.5c0.919-1.46,1.369-1.452,1.5-4l-5-.5V216Zm-38.5,42.5V257l3.5-3c20.395-.4,14.237,21.358,1.5,26-9.1,3.315-24.835,2.648-33-1-2.516-1.124-10.6-7.258-12-7.5-2.361-.408-5.458,3.552-7,4.5-4.541,2.794-11.062,4.412-16.5,6h-7c-11.417,0-21.279-2.387-25.5-9.5-3.263-5.5-1.34-15.037,3-17.5,2.093-1.188,5.261-1.064,8.5-1a1.808,1.808,0,0,0,1,.5l2.5,3v1H555c-1.052-1.368-2-1.514-4.5-1.5-0.635.842-1.365,1.158-2,2-2.154,2.721-.888,9.263,4.5,8,10.667-2.5,20.78-18.112,36.5-14,3.01,0.787,5.19,3.125,8,4,2.325-3.065,10.814-5.823,17.5-4,10.823,2.951,16.154,13.161,28.5,14a16.642,16.642,0,0,0,2-2c3.241-3.756-.476-8.136-5-8A4.171,4.171,0,0,1,637.5,258.5Z" transform="translate(-415 -129)"/>
</svg>
