<svg xmlns="http://www.w3.org/2000/svg" width="95.562" height="88.031" viewBox="0 0 95.562 88.031"><defs><style>.cls-1{fill:#727272;fill-rule:evenodd}</style></defs><path id="new_vector_shape_done" class="cls-1" d="M592.5 959c12.5-.264 21.9.7 29.5 5l-2.5 3.5c-28.863-13.613-54.546 5.388-61.5 28.5-2.564 8.52-.31 19.33 2.5 25.5.687 1.51 3.1 6.95 3 7-.919.62-2.852.54-4.5.5a109.779 109.779 0 0 1-6-15.5c-1.33-4.54.048-13.46 1-16.5.812-2.593.026-4.085 1-6.5 3.79-9.4 10.2-18.061 18-23.5a56.808 56.808 0 0 1 12-6c2.649-.957 5.629-.4 7.5-2zm7.5 82v-19.5h-1c-2.355-1.52-9.58-.57-13-.5-2.784 5.32-4.528 11.78-8 16.5-.953 1.3-2.835 1.9-4 3-6.945.04-12.76-.01-18.5-.5a7.636 7.636 0 0 1-1-4.5c.5-.17 1-.33 1.5-.5 2.674-2.35 12.888-1.08 17.5-1 2.9-3.77 6.519-6.15 7-12.5-4.881-1.84-7.4-6.05-6-12.5 1.489-.87 3.322-2.45 5-3 1.522-.5 3.017.35 4-.5h.5l1-5.5a19.229 19.229 0 0 1 9.5-9c3.392-1.432 10.033-3.123 15-2 1.921.434 6.012 1.675 7.5 1 2.2-2.135 2.693-11.524 4-15 1.012-2.692 3.323-7.34 5.5-9 1.662-1.267 3.969-1.625 5.5-3 2.687.546 6.12 1.5 7 4 2.1 3.2-2.569 11.847-3.5 14.5-4.895 13.956-8.461 27.38-14.5 39.5a114.658 114.658 0 0 1-13.5 1v1c-1.387 2.17-.557 13.37-.5 17a7.633 7.633 0 0 0 4.5 1c1.809 1.15 3.925.28 6.5 1a32.786 32.786 0 0 1 8 4v1h-44.5v-1a34.509 34.509 0 0 1 18.5-5zm40.5-59h1.5c1.448 5.191 4.4 10.494 6 16v15.5c-3.037 10.16-9.677 26.26-19 29.5-.987-1.43-1.984-1.5-2.5-3.5 7.7-3.98 20.764-23.01 17.5-37.5-1.6-7.107-5.611-14.27-3.5-20zm-23 28a113.631 113.631 0 0 1-.5-12 5.233 5.233 0 0 0-3-1c-5.2-3.753-17.377-.15-20 2.5-.946.96-3.545 4.36-2.5 5.5 1.168 1.33 3.94 1.1 6.5 1 1.972 1.29 16.142 3.89 19.5 4z" transform="translate(-552.438 -958.969)"/></svg>