<svg xmlns="http://www.w3.org/2000/svg" width="95.531" height="94.031" viewBox="0 0 95.531 94.031"><defs><style>.cls-1{fill:#727272;fill-rule:evenodd}</style></defs><path id="new_vector_shape_done" class="cls-1" d="M272.5 958c14.769-.319 23.8 1.819 32.5 7v.5h-.5a5.941 5.941 0 0 1-3.5 2.5c-3.983-4.983-22.165-7.533-31-5-18.768 5.381-28.554 18.062-33 38-2.767 12.41 7.382 30.55 13 35 2.759 2.19 11.482 6.45 12 10a4.325 4.325 0 0 1 .5 2.5h-1c-3.071-2.51-7.322-3.67-10.5-6-9.236-6.77-13.314-15.89-17-28.5-.948-3.24-2.247-11.77-1-16.5.8-3.042 1.606-7.349 3-10.5a72.383 72.383 0 0 1 8.5-13.5c3.927-5.211 11.626-9.842 18-12.5 2.993-1.248 7.509-1.135 10-3zm39.5 9.5c-.993 6.018-6.123 11.878-9 16.5-6.644 10.673-13.054 22.74-23.5 29.5 1.807 3.43 5.7 4.64 7 8.5 2.535 7.53-3.839 15.22-8 18-1.474.99-5.678 1.52-6.5 3v4c.941 1.02 1 1.92 1 4h-1a2.526 2.526 0 0 1-1.5.5c-1.089-1.14-1.885-1.25-2.5-3-2.072-2.7.369-6.92-.5-10-.3-1.07-2.108-2.38-2.5-3.5-2.428-6.94 1.64-14.01 4-18 5.432-9.18 9.717-19.634 16-28 6.579-8.761 17.336-13.786 25-21.5h2zm2.5 6c2.932 1.034 8.14 9.227 8.5 13h-1a5.422 5.422 0 0 1-3 .5c-1.324-4.237-5.4-6.461-6-11a9.33 9.33 0 0 0 1.5-2.5zm12 17l1.5.5v.5h-.5c-5.772 8.43-26.367 14.71-38 17.5v-1a33.665 33.665 0 0 0 8.5-8c.743-1.055.988-4.288 2-5h3.5c4.749-3.01 18.416-1.493 23-4.5zm-73 .5c12.127-.262 11.97 1.569 17.5 7.5.183 7.08-1.352 9.39-3.5 13.5-12.112.41-23.356 1.28-23-12.5l1.5-4c1.974-1.234 5.659-3.018 7.5-4.5zm2.5 5c-.947.76-1.795.894-3.5 1-1.59 2.321-2.554 2.6-2.5 7a12.538 12.538 0 0 1 2.5 2 81.376 81.376 0 0 0 10 0c1.789-2.24 2.6-2.42 2.5-7-2.672-1.594-4.579-2.906-9-3zm21.5 56l.5-4c27.694.28 45.3-18.88 45-47 1.745-.54 2.268-1.422 4-2v14c-2.415 3.52-2.891 10.57-5 14.5-7.748 14.43-22.066 24.63-44.5 24.5zm2-48c-1.162 1.32-1.467 1.27-1.5 4a5.778 5.778 0 0 0 3.5 1l.5-1.5a3.37 3.37 0 0 0 .5-2 10.341 10.341 0 0 0-3-1.5zm-5 17c-2.89 3.68-4.6 4.77-4.5 12 1.977 1.2 2.537 1.97 6 2 3.414-4.17 8.536-8.11 3-14h-4.5z" transform="translate(-232.469 -957.969)"/></svg>