<svg xmlns="http://www.w3.org/2000/svg" width="58" height="68.22" viewBox="0 0 58 68.22"><defs><style>.cls-1{fill:#727272;fill-rule:evenodd}</style></defs><path id="new_vector_shape_done" class="cls-1" d="M377 1257c1.234.65.34-.21 1 1 3.755 5.76.108 16.79 7 20 4.027-8.68 18.656-9.31 27.5-5 2.323 1.13 3.2 3.99 5.5 5 .884-2.71 3.144-5.06 4-8 1.227-4.22 1.128-9.08 2-13h1v2.5c3.537 5.79-2.783 18.17-1 25.5 2.1 8.65 5.979 14.29 6 25-1.616 1.34-2.3 3.77-4 5-2.755 2-5.709 2.38-9 4-3.435 1.7-7.181 4.64-11 6h-10c-5.585-2.04-22.076-10.08-24-15v-7.5c1.562-1.42 1.166-3.22 2-5.5a117.805 117.805 0 0 0 4-12c1.3-5.36-.6-11.84-1.5-16-.864-4 .362-8.57.5-12zm18 24c.163 1.11-.519.54.5 1 2.225 1.48 9.6.52 12 0v-.5h-.5v-.5h-12z" transform="translate(-372 -1256.78)"/></svg>