<svg xmlns="http://www.w3.org/2000/svg" width="52" height="49.78" viewBox="0 0 52 49.78"><defs><style>.cls-1{fill:#727272;fill-rule:evenodd}</style></defs><path id="new_vector_shape_done" class="cls-1" d="M175 1258c1.234.65.34-.21 1 1 2.035 2.79 1.693 7.53 3 11 1.268 3.37 3.7 5.33 5.5 8h.5v-.5c7.228-5.27 12.545-11.01 23.5-5.5 3.865 1.95 6.306 2.5 8.5 6h.5v-.5c5.345-3.58 6.87-12.32 8.5-19.5h1v16.5c-1.232 2.23.109 7.1-1 11.5-1.776 7.05-5.216 12.53-10.5 16a48.08 48.08 0 0 1-10.5 5c-11.227 3.51-25.811-10.21-28-16.5-1.342-3.85.148-7.92-1-12.5-1.061-4.23-1.074-12.92-1-20zm25.5 19.5c-1.706 1.58-6.451 1.94-9 2.5a12.5 12.5 0 0 0-1.5 7c1.667 1.12 1.6 1.84 4.5 2 2.175-2.44 3.672-4.05 8.5-4a8.615 8.615 0 0 0 7 4c1.431-2.14 2.07-2.92 2-7-1.1-.83-1.013-1.42-2.5-2-1.91-1.41-6.9-1.64-9-2.5z" transform="translate(-175 -1257.78)"/></svg>