<svg xmlns="http://www.w3.org/2000/svg" width="63" height="78.09" viewBox="0 0 63 78.09"><defs><style>.cls-1{fill:#727272;fill-rule:evenodd}</style></defs><path id="new_vector_shape_done" class="cls-1" d="M579.5 1259c4.524 4.23.566 16.6 6.5 19.5v.5h.5v-.5c1.389-1.42 2.263-3.43 4-4.5 8.075-4.97 20.851-1.47 24 5 .5-.17 1-.33 1.5-.5.683-2.41 2.325-5.05 3-7.5 1.2-4.38.546-8.42 2-12h.5v.5c3.786 5.09 1.373 14.62 3.5 21.5 2.447 7.92 6.895 12.22 7 22a21.815 21.815 0 0 0-5.5 8l-.5 8a25.918 25.918 0 0 1-10 14c-13.3 8.67-33.238 2.56-39-8.5-2.154-4.13-.932-10.77-3-15-2.456-5.02-5.072-4.28-5-13 8.614-7.7 5.76-25.81 10.5-37.5zm13.5 25v1.5h1c.71.45 12.4.33 14 0v-1.5c-2.915-.46-5.987-2.45-10-1.5-1.636.39-3.114 1.2-5 1.5z" transform="translate(-569 -1259)"/></svg>