<svg xmlns="http://www.w3.org/2000/svg" width="369.531" height="101.313" viewBox="0 0 369.531 101.313"><defs><style>.cls-1{fill:#727272;fill-rule:evenodd}</style></defs><path id="new_vector_shape_done" class="cls-1" d="M302 133a2.417 2.417 0 0 0 1.5-.5c5.3-5.471 8.212-21.053 17.5-21.5 2.281 2.084 3.963 1.915 4 6.5-.932.927-1.081 2.553-2 3.5-.532.548-2.011.43-2.5 1l-.5.5v.5c-.065.9 1.764 1.895 2 2.5v7c-1.12.98-1.1 2.272-2 3.5-2.542 3.452-7.305 4.076-13.5 4-1.1-.992-2.75-1.1-4-2-1.5-1.073-2.223-3.179-3.5-4.5-.281-5.893-.24-11.05 5-11.5a1.708 1.708 0 0 0 .5 1c-1.739 4.7-3.045 2.839-2.5 10zm89.5 2.5a2.417 2.417 0 0 0 1.5-.5c6-2.173 10-13.745 14.5-15a9.51 9.51 0 0 0 2 1.5A32.741 32.741 0 0 0 407 133h1c2.627-4.21 6.511-8.54 9-13 1.123-2.012 1.976-6.074 4-7h2.5v.5h.5a1.708 1.708 0 0 1-.5 1c-.672 2.591-2.364 4.216-3.5 6.5h1.5c.953-.74 1.659-.925 2.5-.5 2.118.7 2.1 1.659 2 4.5-2.786 2.309-3.479 6.909-6 9.5l.5 1.5c6.9-3.386 9.184-13.264 14-15 2.941-2.513 9.131.134 7.5 5-.737 2.2-3.438 4.986-3.5 6.5.356.283.021.721 1 .5v-.5c5.691-1.695 4.947-9.124 9.5-11.5 2.533-1.847 8.085-.914 9 1 2.065 3.548-4.238 9.058-5 12.5h1c1.149-1.574 3.226-3.569 5.5-4v.5h.5v1c-4.583 3.09-5.647 6.037-14 6a3.785 3.785 0 0 0-2.5-2v.5c-2.751 3.123-2.534 8.5-8.5 8.5.666-4.118 3.754-6.3 5-10h-3.5c-1.673 2.608-4.016 3.126-8.5 3-.786-1.315-1.206-2.071-3-2.5-1.556 2.059-3.709 2.587-7.5 2.5l-.5-1.5c-1.832-2.982 4.267-9.645 5-13h-1.5l-4.5 4c-2.062 2.828-3.141 8.611-6.5 10-2.1 1.227-2.387-.843-4.5-.5a26.673 26.673 0 0 1-6 1 5.015 5.015 0 0 0-3-2.5c-1.411 2.1-3.341 2.583-7 2.5a7.407 7.407 0 0 1-1.5-3.5c1.8-2.229 4.141-6.221 4.5-9.5h-.5v-.5h-.5v.5c-5.742 5.616-7.309 13.1-19 13a14.092 14.092 0 0 1-2.5-4c-6 1.465-6.806 3.951-14 4-2.354-4.018-4.482-.273-10 0a7.407 7.407 0 0 1-1.5-3.5 23.266 23.266 0 0 0 5-9.5h-.5v-.5h-.5v.5c-3.249 2.39-10.146 15.767-17 13-.979-.4-.736-1.136-2.5-1.5-1.174 1.519-2.684 1.582-5.5 1.5a8.843 8.843 0 0 1-1-5c4.989-4.185 4.075-11.923 12.5-13 1.72 1.635 3.913 2.73 4.5 5.5-2.168 1.73-5 6.857-5.5 10h2c3.014-3.952 8.008-7.053 10.5-11.5.88-1.57.139-5.513 1-7.5h1l.5 1c.485.717 0 1.949.5 3 1.165 2.459 3.273 2.341 3.5 6.5a19.86 19.86 0 0 0-4.5 8.5h2c1.3-1.769 3.717-2.746 5-4.5 3.2-4.373 7.24-17.822 13.5-18v.5h.5l-3.5 6.5c4.24-.017 4.756 1.585 4.5 6-1.259 1-4.006 5.583-3.5 6.5a1.808 1.808 0 0 0 1 .5c.886-1.176 2.649-1.415 3.5-2.5 3.6-4.586 3.178-9.963 11-10.5 1.1 1.044 1.844.858 2.5 2.5a3.373 3.373 0 0 1 .5 2c-1.934 2.052-2.333 5.155-5 6.5-3.451 1.741-6.176-1.13-7 3.5a9.023 9.023 0 0 1 2 1.5c5.842-1.247 13.279-8.84 15-14-1.255-1.336-.913-2.607-.5-4.5a7.855 7.855 0 0 1 2.5-.5c.878 4.385 3.526 5.266 4 9.5a19.454 19.454 0 0 0-4.5 9zM315 121l4.5-1c1.2-2.063 3.661-5.18-.5-6-1.491 2.27-3.413 3.722-4 7zm49 2c-1.558 2.355-2.912 3.41-3 7.5a7.507 7.507 0 0 0 2 1c.825-3.194 2.9-4.482 3.5-8a7.855 7.855 0 0 0-2.5-.5zm12 6.5a19.246 19.246 0 0 0 3.5-1c.856-1.727 1.66-2.6 2-5h-1c-.484-.126-.19-.392-.5 0-2.224.82-2.355 2.69-4 4v2zm62.5-6.5H436c-2.162 3.7-5.706 7.142-6.5 12a7.084 7.084 0 0 0 2 .5 1.808 1.808 0 0 1 1-.5c1.748-4.846 5.634-6.234 6-12zm-125.5.5c-2.209 3.858-6.411 8.064-7 13h1c2.176 1.5 6.222 0 8-.5 1.294-1.93 2.682-2.431 3-5.5 1.608-2.292-.534-5.066-2-6a5.192 5.192 0 0 0-3-1zm12.5 12h2c2.611-3.441 6-6.353 7.5-11a5.3 5.3 0 0 0-2.5-1 1.808 1.808 0 0 1-1 .5c-1.829 3.734-5.225 7.023-6 11.5zm119.5-1c1.709.1 2.169.457 3 0 2.547-1.794 5.67-7.2 6-11-4.431.656-8.286 6.754-9 11zm-41.5-7c-1.5 2.385-3.667 3.954-5 6.5 1.6.469 1.748.87 4 1v-.5h.5l1.5-7h-1zm-45 4a7.865 7.865 0 0 0-1 3.5 7.084 7.084 0 0 0 2 .5 1.808 1.808 0 0 1 1-.5v-1.5a16.642 16.642 0 0 0-2-2zm-124 31.5h18c.642.917.984.856 1.5 2 1.805 2.033 1.022 8.323 1 12-.018 3.109-1.716 5.131-1.5 7 .036.313 1.4 1.674 1.5 2 1.616 5.236.144 17.847-3 19-3.064 2.188-12.146 1.069-17 1-1.393-2.673-1-7.842-1-12 0-7.76-1.532-24.959.5-31zm35 0c5.528-.053 12.29-.429 17 .5 3.582 7.354 1.548 28.468 1.5 39-1.135 1.089-1.254 1.885-3 2.5-3.032 2.412-12.251.8-15.5 0a12.5 12.5 0 0 0-2-2.5V176c0-2.964-.761-8.493.5-10.5a8.219 8.219 0 0 1 1.5-2.5zm31 0c6.146-.054 13.689-.544 19 .5 2.3 4.69 1.554 14 1.5 21-4.605 4.558-.227 13.41 0 21h-.5v.5c-1.936-.073-4.858-.268-6 .5-.637 1.048-.343 3.962-1 5-1.156.77-4.053.56-6 .5a5.3 5.3 0 0 1-1-2.5h1c.814-.5 3.193-.48 4-1 1.734-2.705.567-11.152.5-15-.819-1.207-.666-3.741-1.5-5a3.373 3.373 0 0 0-2-.5c-1.475 4.393-.541 12.169-.5 17.5a22.637 22.637 0 0 1-6.5.5 1.808 1.808 0 0 0-1-.5V163zm34.5 0h16c4.108 6.972 2.058 29.1 2 40-1.195.778-1.462 1.461-3 2-3.032 2.412-12.251.8-15.5 0-2.94-4.695-3.539-34.634-1-41a5.489 5.489 0 0 0 1.5-1zm31 0h18a12.5 12.5 0 0 0 2 2.5V203c-1.195.778-1.462 1.461-3 2-2.82 2.178-11.865 1.074-16.5 1-1.163-3.512-.5-9.617-.5-14v-29zm33 0h7.5c1.032 3.117.5 8.538.5 12.5V205c-1.8.96-4.4 1.06-7.5 1-1.163-3.512-.5-9.617-.5-14v-29zm28 0c.255 2.376 3.648 13.7 5 14.5V163h7.5c1.032 3.117.5 8.538.5 12.5V205c-1.713.917-4.014 1.058-7 1a25.07 25.07 0 0 1-.5 5.5h-1c-1.075.719-3.654.557-5.5.5a5.489 5.489 0 0 0-1-1.5v-.5h.5c1.029-1.187 2.686-1.086 5-1a47.066 47.066 0 0 0-3-19h-.5v2c-.847 1.679-.047 9.51 0 13-1.713.917-4.014 1.058-7 1-1.532-2.98-1-8.983-1-13.5v-29c1.928-.661 5.307-.536 8-.5zm39 17c4.009.24 6.895 1.805 10-.5 1.087-1.661.565-6.43.5-9a1.808 1.808 0 0 1-.5-1h1v.5c2.541 1.975 2.123 6.913 2 11.5-1.366.575-4.2 1.083-5.5 2-1.47 2.309-.557 14.637-.5 18.5-1.194 1.279-1.081 2.3-3 3-3.266 2.4-12.506.81-16 0-1.851-3.144-2.066-6.979-2-12.5h.5v-.5c1.977-.262 3.817-1.3 5.5-1.5 1.743-.211 3.759.981 6.5 1a10.75 10.75 0 0 0 .5-3.5c-2.659.08-7.772.637-9.5-.5a3.758 3.758 0 0 1-2.5-2c-1.146-1.436-1.849-17.451-.5-19.5 1.558-4.62 11.946-3.182 18-3 2.126 3.311 2.577 6.428 2.5 12.5-2.639 1.029-6.648.851-7 4.5zm27-17v16h1c.372-5.593 3.268-10.279 4.5-15.5 1.928-.661 5.307-.536 8-.5v1c-2.729 3.839-2.769 9.762-4.5 14.5-.615 1.683-2.805 4.136-2 7 1.049 3.734 7.263 17.132 6 20-1.322.874-4.847.563-7 .5a28.168 28.168 0 0 1-.5 6H492a5.489 5.489 0 0 0-1-1.5v-.5h.5c1.13-1.194 3.555-.608 5-1.5 1.194-1.833.566-7.218.5-10-1.733-2.428-1.446-8.45-4-10v17c-1.683.579-4.575.534-7 .5-1.532-2.98-1-8.983-1-13.5v-29c1.928-.661 5.307-.536 8-.5zm25.5 0h7.5v42.5a22.637 22.637 0 0 1-6.5.5 1.808 1.808 0 0 0-1-.5V163zm-108 6h2c1.032 3.117.5 8.538.5 12.5v29a1.808 1.808 0 0 0-.5 1h-1c-1.156.77-4.053.56-6 .5v-1a2.546 2.546 0 0 1-.5-1.5 18.462 18.462 0 0 1 5.5-.5v-40zm32.5 40v-39.5a7.855 7.855 0 0 1 2.5-.5c1.032 3.117.5 8.538.5 12.5v29a1.808 1.808 0 0 0-.5 1h-1c-1.156.77-4.053.56-6 .5a5.489 5.489 0 0 0-1-1.5v-1h1c.919-.619 2.852-.544 4.5-.5zm69.5-40c-.991 6.949-4.8 13.295-6.5 19.5-1.025 3.744 5.832 17.944 6.5 23h-1c-1.156.77-4.053.56-6 .5a5.489 5.489 0 0 0-1-1.5v-1h1c.919-.619 2.852-.544 4.5-.5-.991-7.218-5.618-13.575-6.5-20.5l6-19.5h3zm17.5 0h2v42.5a22.637 22.637 0 0 1-6.5.5 5.3 5.3 0 0 1-1-2.5h1c.919-.619 2.852-.544 4.5-.5v-40zm-271.5.5c1.436.56.921.087 1.5 1.5 1.926 2.2 1.076 9.575 1 13.5-.041 2.122-1.69 4.176-1.5 5 .087.378 1.388 1.62 1.5 2 1.1 3.711.128 14.844-.5 18-4.362 2.78-11.366 2.572-19 2.5a5.3 5.3 0 0 1-1-2.5h1c4.112-2.443 13.05 1.528 16-2 1.024-1.348 1.953-15 1-18-.074-.232-1.485-1.424-1.5-1.5-.223-1.125 1.269-2.156 1.5-3v-15.5zm33 0c3.219 1.859 2.5 5.993 2.5 11v28a1.808 1.808 0 0 0-.5 1c-4.524 2.891-8.893 2.579-16.5 2.5-.98-1.258-1.861-1.261-2.5-3h15c4.954-7.869 2.538-28.292 2-39.5zM325 209l-3-18c.351-.8 2.113-1.208 2.5-2.5v-19h1v.5c3.068 3.074 1.592 15.219 1.5 21-4.7 3.477-.237 13.545 0 20.5a22.637 22.637 0 0 1-6.5.5 5.489 5.489 0 0 0-1-1.5v-1h1c.919-.619 2.852-.544 4.5-.5zm31.5-39.5c3.423 1.295 2.5 5.95 2.5 10.5v29c-5.39 3.589-7.512 3.1-16.5 3-1.279-1.194-2.3-1.081-3-3h15c4.167-6.552 3.209-29.471 2-39.5zm33 0c3.5 1.281 2.5 5.917 2.5 10.5v29c-5.391 4.075-10.3 3.114-19.5 3a7.855 7.855 0 0 1-.5-2.5c3.865-1.3 10.73-.541 15.5-.5l2.5-3c.057-11.607 1.56-25.85-.5-36.5zM242 180h3.5v-.5h.5c-.015-4.1.873-5.387 1-9a14.455 14.455 0 0 0-4.5-.5c-.829 2.433-.538 6.762-.5 10zm33 18h3.5c2.042-6.118.543-16.835.5-24 1.292-.752 1.058-1.5 1-3.5a14.455 14.455 0 0 0-4.5-.5c-2.09 6.277-.54 20.355-.5 28zm34-28c-1.143 2.156-1.062 5.947-1 9.5a10.75 10.75 0 0 0 3.5.5v-.5h.5c-.015-4.1.873-5.387 1-9a12.541 12.541 0 0 0-4-.5zm35 28v-24h1v-3.5a12.541 12.541 0 0 0-4-.5c-2.493 4.82-1.055 20.416-1 27.5a12.541 12.541 0 0 0 4 .5zm33 0v-24c.827-1.522 1.309.3 1.5-3.5h-1c-.775-.525-2.043-.515-3.5-.5-2.493 4.82-1.055 20.416-1 27.5a12.541 12.541 0 0 0 4 .5zm83-18h3.5c-.015-4.761 1.339-5.454 1.5-9.5a14.455 14.455 0 0 0-4.5-.5v.5h-.5v9.5zm-256-1.5h1.5c.979 1.391 5.427 4.722 4.5 6l-5 5.5h-.5v-.5c-8.706-5.276-4.173-5.749-.5-11zm352.5 0h1.5c1.484 2.21 4.039 3.314 5 6a20.688 20.688 0 0 0-5.5 5.5 1.417 1.417 0 0 1-.5-.5c-8.465-5.144-4.171-5.8-.5-11zm-80 8.5c1.2.849 1.516 1.987 2.5 3 .076 6.7.319 14.828-1 20-3.5 2.179-17.093 4.277-19-1h15c4.539-7.015.7-14.579 2.5-22zM214 188c1.54.519 1.459.483 2 2h.5v.5h-.5l-5 5.5h-.5v-.5c-3.406-2.537 1.931-5.288 3.5-7.5zm28 0v10h3.5v-.5h.5c-.021-4.254.872-5.826 1-9.5h-5zm324.5 0c1.781.556 2.155.962 2.5 3-1.63.673-5.131 3.28-5.5 5h-.5c-4.543-1.8 2.116-5.989 3.5-8zM460 193.5v4.5h3c1.207-1.558 1.841-1.083 2-4z" transform="translate(-199.469 -111)"/></svg>