<svg xmlns="http://www.w3.org/2000/svg" width="225.438" height="30.063" viewBox="0 0 225.438 30.063"><defs><style>.cls-1{fill:#727272;fill-rule:evenodd}</style></defs><path id="new_vector_shape_done" class="cls-1" d="M68.5 29H80c1.385 2.63 1.062 7.875 1 12-.847 1.679-.047 9.51 0 13a9.023 9.023 0 0 0-2 1.5H69c-1.984-5.953-.54-19.227-.5-26.5zM90 29h10.5v1c1.8 2.85.555 19.715.5 24.5l-1.5.5c-1.941 1.364-8.639.618-10-.5-1.606-2.468-.615-23.384.5-25.5zm19 0h11.5c.986 3.381 1.03 8.693 1 13.5-2.638 2.589-.22 8.29 0 13H118a10.753 10.753 0 0 0-.5 3.5H113v-1.5h2.5c.829-2.433.538-6.762.5-10a18.713 18.713 0 0 1-1-3h-1a1.709 1.709 0 0 1-.5 1 28.978 28.978 0 0 1 0 10h-4c-1.984-5.953-.54-19.227-.5-26.5zm20.5 0H140c2.723 5.256 1.06 17.819 1 25a9.013 9.013 0 0 0-2 1.5 50.5 50.5 0 0 1-9.5-.5l-.5-1.5c-2-3.095-.294-21.474.5-24.5zm19.5 0h11.5v1c1.8 2.85.555 19.715.5 24.5l-1.5.5c-1.92 1.248-7.613.566-10.5.5V29zm20 0h5v26a14.455 14.455 0 0 1-4.5.5v-1c-1.856-2.941-.555-20.56-.5-25.5zm12.5 0h5a28.216 28.216 0 0 0 2 7.5h.5c.19-2.354.012-4.216 0-7.5h5v26h-.5v.5a5.274 5.274 0 0 0-3 .5 5.421 5.421 0 0 0-.5 3h-5v-1.5h3c.116-4.508-.291-7.67-1.5-10.5h-.5v8.5h-4c-1.984-5.953-.54-19.227-.5-26.5zM218 41a10.818 10.818 0 0 0-3.5 1c-1 2.949-.54 8.208-.5 12a9.013 9.013 0 0 0-2 1.5 50.5 50.5 0 0 1-9.5-.5v-.5h-.5a58.706 58.706 0 0 1-.5-7l1.5-.5c2.024-1.539 4.071.046 5.5-.5 1.271-.728.564.108 1-1.5h-.5v-.5a31.3 31.3 0 0 1-6.5-.5l-.5-1.5c-1.924-2.888-.154-11.1.5-13.5H213c1 1.885 1.061 4.787 1 8l-4 1.5a1.709 1.709 0 0 0 .5 1c.919.619 2.852.544 4.5.5a1.8 1.8 0 0 1 1-.5c.583-1.755.273-5.461.5-6.5 1.705 1.651 1.608 4.483 1.5 8zm4-12h4.5v8.5h1v-1c1.274-1.629 2.163-5.172 2.5-7.5h5c-.627 3.649-5.133 11.058-4 15 .655 2.279 4.58 9.222 3.5 11-1.329.782-3.122.131-4 1.5-.53.877-.3 1.091-.5 2.5h-4.5v-1h.5v-.5c1.882-.071 1.758.236 2.5-1 1.968-2.849-.549-8.535-1.5-10.5h-.5v9h-.5c-.845.571-2.448.533-4 .5V29zm20 0h5v26a14.455 14.455 0 0 1-4.5.5c-1.984-5.953-.54-19.227-.5-26.5zm-64.5 30H173v-1.5h2.5c2.086-6.251.543-17.193.5-24.5h.5v-.5h.5v.5c1.884 2.986.555 20.984.5 26zm20.5 0h-5v-1.5h3c-.071-7.422-1.63-18.645.5-25a1.712 1.712 0 0 1 1 .5c1.884 2.986.555 20.984.5 26zm40.5-26.5l-4 14c.552 4.025 3.4 7.913 4 12.5H234v-1.5h2.5c-.277-4.922-2.6-7.974-3.5-12-.592-2.645 3.038-10.874 4-13h1.5zm12 26.5H246v-1.5h2.5c2.086-6.251.543-17.193.5-24.5h.5v-.5h.5v.5c1.884 2.986.555 20.984.5 26zM83 33.5h1.5v1c1.616 2.477.119 8.65-.5 10.5a32.334 32.334 0 0 1 0 14H72.5l-.5-1c2.433-.828 6.762-.538 10-.5 1.435-2.727 1.062-8.26 1-12.5-.8-1.5-.062-8.292 0-11.5zM93.5 59v-1.5h8.5c2.913-4.791 1.572-16.671 1.5-24h1v.5c1.746 2.76.556 18.868.5 23.5-2.516 1.733-6.94 1.6-11.5 1.5zm32 0h-5v-1a9.154 9.154 0 0 1 3-.5c-.039-3.574-2.22-8.333-1.5-11 .154-.57 1.839-2.1 2-3 .369-2.069-.493-7.042-.5-10h1v.5c2.782 3.646.266 11.285-.5 13.5-1.2 3.483 1.158 8.335 1.5 11.5zM143 33.5h1.5v1c2 3.095.294 21.474-.5 24.5h-10.5v-1.5a47.323 47.323 0 0 0 9-.5c2-5.985.543-16.476.5-23.5zm20.5 0l1.5.5v23.5c-2.669 1.833-7.736 1.6-12.5 1.5v-1c2.306-.786 6.4-.538 9.5-.5 2.913-4.791 1.572-16.671 1.5-24zM76 34h-2.5a16.444 16.444 0 0 0-.5 5 7.531 7.531 0 0 0 2 1v-.5c.76-1.143.916-3.837 1-5.5zm17.5 0c-.068 5.169-.933 12.764.5 17h1c1.737-3.319 1.061-10.562 1-15.5a2.551 2.551 0 0 0 .5-1.5h-3zm20.5 0a19.664 19.664 0 0 0 .5 6 1.712 1.712 0 0 0 1-.5c.715-1.021 1.057-4.9 1-5a4.325 4.325 0 0 0-2.5-.5zm22 0h-2.5c-1.345 4-.541 11.09-.5 16a7.528 7.528 0 0 0 2 1v-.5c1.166-1.852.839-13.773 1-16.5zm17.5 0c-.068 5.169-.933 12.764.5 17h1c1.737-3.319 1.061-10.562 1-15.5a2.547 2.547 0 0 0 .5-1.5h-3zm53 0a19.664 19.664 0 0 0 .5 6 1.712 1.712 0 0 0 1-.5c.771-1.175 1.277-4.115 1.5-5.5h-3zm-157 5h2c.9 1.359 1.889 1.772 2.5 3.5h-.5c-.794 1.386-2.221 3.041-3.5 2.5-3.822-2.2-2.5-3.162-.5-6zM265 39h1.5c1.047 1.553 2.047 1.709 2.5 4-1.553 1.047-1.709 2.047-4 2.5-2.5-3.5-2.4-3 0-6.5zm-58.5 20v-1.5h8.5c1.812-3.188.922-10.046 1.5-13.5l1 .5c1.085 3.21.54 8.93.5 13-2.516 1.733-6.94 1.6-11.5 1.5zM56 44.5c1.55.612 1.131.188 1.5 2-1.553 1.047-1.709 2.047-4 2.5-.261-2.27 1.178-2.589 2.5-4.5zm20 0h-2.5v1c-.619.919-.544 2.852-.5 4.5a7.531 7.531 0 0 0 2 1v-.5c.845-1.267.962-4.089 1-6zm197 .5v1.5c-1.715 1.167-1.721 2.2-4.5 2.5v-1.5c1.715-1.167 1.721-2.2 4.5-2.5zm-66 3a7.852 7.852 0 0 0-.5 2.5h.5v.5h1a9.026 9.026 0 0 0 1.5-2.5h-1a2.55 2.55 0 0 0-1.5-.5z" transform="translate(-47.563 -29)"/></svg>