<svg xmlns="http://www.w3.org/2000/svg" width="370" height="153.156" viewBox="0 0 370 153.156"><defs><style>.cls-1{fill:#727272;fill-rule:evenodd}</style></defs><path id="new_vector_shape_done" class="cls-1" d="M533.5 129h5c1.385 2.055 2.431 2.317 2.5 6-.842.87-.746 1.956-1.5 3-.986 1.366-2.662 1.275-3.5 3 2.205 1.7 2.122 4.962 2 9-6.23 6.854-5.252 8.749-17.5 7a80.111 80.111 0 0 0-5.5-6v-7.5c1.835-1.542 1.523-3.41 4.5-4a7.507 7.507 0 0 1 1 2c-2.987 1.852-3.541 5.894-2 9.5l1-.5c3.712-7.709 8.964-15.1 14-21.5zM638 141h-1.5c-2.25 3.083-5.39 5.568-7.5 9-.957 1.557-1.392 4.739-3 5.5h-3c-1.482-1.474-4.147.3-7.5.5-.877-1.165-1.742-1.59-2.5-3-2.523 1.3-3.677 2.8-7.5 3-.642-.917-.984-.856-1.5-2-1.835-3.2 3.635-7.853 4-12h-1c-1.881 5.751-10.128 13.981-18 14-1.233-1.282-3.436-3.738-5.5-4a17.929 17.929 0 0 1-11.5 4 7.359 7.359 0 0 0-3-3c-1.357 1.83-3.37 2.9-6.5 3-1.327-1.392-2.115-1.469-2.5-4 1.982-2.051 4.494-6.266 5-9.5a2.417 2.417 0 0 0-1.5.5c-4.6 4.446-7.243 12.373-15.5 13a6.6 6.6 0 0 0-3-2c-1.089 1.408-2.608 1.869-5 2-1.579-1.657-2.068-1.925-2-5.5 3-2.4 3.648-6.919 6-10l3.5-2.5h4c1.137 1.748 2.918 2.775 3.5 5-2.062 2.136-4.894 6.758-5.5 10a1.417 1.417 0 0 1 .5.5c3.263-1.411 11.613-9.708 12.5-13 .575-2.136-.57-3.978.5-6.5h1c1.245 2.274 4.345 6.889 4.5 10.5-1.71 2.021-3.959 5.622-4.5 8.5a1.417 1.417 0 0 1 .5.5c5.242-2.4 8.8-8.147 11.5-13 2.313-4.161 2.407-9.461 9-9.5v1c-1.3.93-3.569 4.445-3 5.5 3.172 1.89 4.2.55 4 6-1.722 1.8-2.884 4.647-4 7h1.5l3.5-2.5 4-7.5 3.5-2.5a25.07 25.07 0 0 1 5.5.5l.5 1.5a3.373 3.373 0 0 1 .5 2c-3.232 4.236-3.021 7.187-11 7-.418 1.45-.7 1.287-1 3a7.407 7.407 0 0 0 3.5 1.5c5.117-4.026 11.3-7.2 13.5-14-.886-.96-.948-1.568-1-3.5a9.51 9.51 0 0 0 1.5-2 1.417 1.417 0 0 1 .5.5c1.165.869 4.723 7.668 5 9.5a18.744 18.744 0 0 0-4.5 9.5h1c1.775-1.825 4.46-2.959 6-5 2.725-3.612 5.586-7.193 8-11a8.862 8.862 0 0 1 2 1 4.325 4.325 0 0 1 .5 2.5c-1.6 2.061-1.988 6.565-2 10h1c2.705-4.393 6.239-9 9-13.5.667-1.085 2.3-6.011 3-6.5h4v1a28.154 28.154 0 0 0-4 6.5h1.5c.775-.525 2.043-.515 3.5-.5a7.648 7.648 0 0 1 1 4.5c-2.353 2-5.029 7.358-6 10.5a1.417 1.417 0 0 1 .5.5c9.115-4.081 7.4-15.562 19.5-15.5 4.147 6.286-.373 6.624-1.5 12.5h1c1.209-1.092 3.066-1.661 4-3 2.4-3.443 2.483-9.166 8-9.5.982.54 3.754.077 6 0v.5h.5c.664 6.219-3.5 8.342-5 13.5h1.5c1.075-1.74 2.587-3.555 5-4v.5h.5v1c-3.958 3.068-5.746 6.418-13 6.5-.991-.981-1.741-1.188-2.5-2.5l-1.5.5c-.523 3.705-3.455 8.989-8 9v-.5h-.5l.5-1.5c2.042-1.593 4.271-5.749 5-8.5h-1.5a16.288 16.288 0 0 1-10 3.5 8.557 8.557 0 0 0-3.5-3c-1.289 1.9-3.373 2.909-6.5 3-1.425-1.492-1.964-1.352-2-4.5 2.117-2.516 4.913-6.822 5.5-10.5zm-107-2.5l4.5-1c.892-1.524 1.659-2.269 2-4.5a1.808 1.808 0 0 1-.5-1h-2.5c-1.289 2.039-2.975 3.674-3.5 6.5zm50 1.5c-2.326 2.409-3.992 3.572-4 8.5a7.084 7.084 0 0 0 2 .5c1.033-2.916 5.175-6.534 2-9zm72 0c-2.644 3.537-6.671 7.309-7.5 12.5a9.146 9.146 0 0 0 3 .5c.216-.619.052-2.58.5-3.5 1.606-3.295 5.12-2.8 5.5-9zm-124 1c-2.233 3.933-6.067 8.22-7 13a20.051 20.051 0 0 0 6 1c2.084-1.831 4.469-2.021 5.5-5 1.586-1.9.873-4.983 0-7-1.524-.892-2.269-1.659-4.5-2zm19.5 0c-2.075 3.324-4.381 7.963-7 11l.5 1.5c2.936-1.182 9.668-8.7 8.5-11.5v-1h-2zm43.5 6l3-.5c.992-1.682 1.946-2.729 2.5-5a7.855 7.855 0 0 0-2.5-.5c-1.194 2-2.555 3.16-3 6zm69 5l3.5.5c1.808-3.683 5.153-6.7 5.5-11.5-4.3.639-8.3 6.925-9 11zm-41.5-7c-1.473 2.47-4 4.2-5 7 1.859.3 1.649.665 3.5 1a7.507 7.507 0 0 0 1-2c1.36-1.582 1.471-4.833.5-6zm-45.5 4.5l-.5 3.5h2.5a7.084 7.084 0 0 0 .5-2c-1.149-.8-.755-1.071-2.5-1.5zm-123.5 31c6.477-.076 14-.163 19 1 2.758 5.868 1.194 14.295 0 20-.155.741 1.341 2 1.5 2.5 1.354 4.272-.242 15.5-1 18.5-4.478 2.1-12.8 1.546-19.5 1.5-1.076-3.249-.5-8.9-.5-13v-29.5a1.808 1.808 0 0 0 .5-1zm36.5 0c5.183-.093 11.832-.479 15.5 1 3.582 7.354 1.548 28.468 1.5 39a3.565 3.565 0 0 0-1 2c-3.868 1.82-10.528 1.547-16.5 1.5-.98-1.258-1.861-1.261-2.5-3-1.273-1.979-.5-7.557-.5-10.5v-27c.564-1.547 2.34-2.017 3.5-3zm43 49.5h-7v-.5h-.5V228h4.5c1.839-3.52 1.061-11.328 1-16.5-.819-1.207-.666-3.741-1.5-5a3.373 3.373 0 0 0-2-.5c-1.519 4.525-.541 12.528-.5 18h-7c-1.163-3.512-.5-9.617-.5-14v-29c4.261-1.432 11.809-.541 17-.5a9.783 9.783 0 0 0 2 1c2.3 4.69 1.554 14 1.5 21-5.892 5.981 2.5 15.163 0 21-1.408.85-5.105.126-6.5 1-.719 1.075-.557 3.654-.5 5.5zm22-49.5c5.183-.093 11.832-.479 15.5 1 2.963 5.187 2.474 33.029 1 40.5-3.863 2.305-10.434 2.071-17 2-.635-.842-1.365-1.158-2-2-1.617-2.117-1-7.361-1-11 0-9.347-.546-19.98.5-28.5a22.229 22.229 0 0 0 3-2zm30 0c5.957-.093 14.142-.749 18.5 1 2.963 5.187 2.474 33.029 1 40.5a12.5 12.5 0 0 0-2.5 2h-17v-43.5zm33 43.5v-43c1.8-.62 4.942-.535 7.5-.5v1c1.424 2.278.5 8.708.5 12v30c-1.928.661-5.307.536-8 .5zm34 0v5.5c-1.8.62-4.942.535-7.5.5l-.5-1.5a1.417 1.417 0 0 0 .5-.5l5-.5V218l-3-9.5h-.5c-.372 3.843-.012 9.77 0 15-1.8.62-4.942.535-7.5.5-1.076-3.249-.5-8.9-.5-13v-29.5a1.808 1.808 0 0 0 .5-1h7v.5h.5c.255 2.376 3.648 13.7 5 14.5V181c1.8-.62 4.942-.535 7.5-.5v1c1.424 2.278.5 8.708.5 12v30c-1.683.579-4.575.534-7 .5zm32-18h-10c-.832-1.1-1.418-1.013-2-2.5-2.544-2.76-1.464-20.82 1.5-22 2.813-2.249 13.515-1.237 16.5 0 1.8 3.061 2.066 6.6 2 12a25.7 25.7 0 0 1-6.5 2 7.855 7.855 0 0 0-.5 2.5 10.75 10.75 0 0 0 3.5.5c1.572 1.1 5.285-.026 6.5-1 1.087-1.661.565-6.43.5-9a1.808 1.808 0 0 1-.5-1h1v.5c2.541 1.975 2.123 6.913 2 11.5-.949.479-4.651 1.152-5.5 2h-.5V220a3.565 3.565 0 0 0-1 2 12.5 12.5 0 0 0-2.5 2c-3.613.082-11.494 1.121-14-.5a3.758 3.758 0 0 1-2.5-2c-1.72-2.147-1.129-8.6-.5-11.5h2.5c2.584-2.047 5.816-.159 9.5 0a12.541 12.541 0 0 0 .5-4zm41.5-25.5c-.681 5.154-7.654 19.456-6.5 23.5 1.8 6.306 5.562 12.876 6.5 20H715v6h-7.5l-.5-1.5a1.417 1.417 0 0 0 .5-.5c7.143.278 5.831-4.481 5.5-11-1.767-2.474-1.382-8.422-4-10v17h-7.5c-1.076-3.249-.5-8.9-.5-13v-29.5a1.808 1.808 0 0 0 .5-1h7c1.432 4.261.541 11.809.5 17h1c.023-2.122 4.247-16.466 5-17h7.5zm19.5 0V224h-7c-1.163-3.512-.5-9.617-.5-14v-29c1.805-.62 4.942-.535 7.5-.5zM621 230v-2a25.07 25.07 0 0 0 5.5-.5V187a7.084 7.084 0 0 1 2-.5v1c1.424 2.278.5 8.708.5 12v30c-1.928.661-5.307.536-8 .5zm38.5-43.5h2v1c1.424 2.278.5 8.708.5 12v30c-1.928.661-5.307.536-8 .5a1.708 1.708 0 0 0-.5-1v-.5h.5c.93-.568 3.579-.413 4.5-1 1.369-2.189.5-8.317.5-11.5v-28.5a1.808 1.808 0 0 0 .5-1zm69 0c-.644 7.55-4.956 13.754-6.5 20.5-.91 3.975 5.8 17.623 6.5 23H721l-.5-2c1.737.066 4.016.167 5-.5a2.546 2.546 0 0 0 .5-1.5c-1.887-2.418-1.942-6.294-3-9.5-.913-2.767-3.029-6.566-3.5-9.5-.555-3.454 5.052-15.771 6-20a9.146 9.146 0 0 1 3-.5zm19.5 0V230h-7v-.5h-.5V228h5c1.033-3.117.5-8.538.5-12.5V187a1.417 1.417 0 0 0 .5-.5h1.5zM456.5 228c5.617.076 11.8-.017 16-1a12.5 12.5 0 0 1 2-2.5V208a19.965 19.965 0 0 0-1.5-2c-.192-1.161 1.262-2.124 1.5-3v-15.5h1v.5c2.232 2.369 1.516 8.454 1.5 13-.027 7.48 1.034 19.594-1 27.5-4.284 2.107-12.482 1.555-19 1.5v-.5h-.5V228zm51-40.5c3.219 1.86 2.5 5.992 2.5 11V227c-5.189 3.993-8.553 3.129-17.5 3-.948-1.016-1.436-.934-2-2.5h2c2.982 1.943 13.3.449 14.5-1.5 1.566-2.548 1-7.6 1-11.5 0-8.986.028-18.789-.5-27zm28 40.5h5a7.855 7.855 0 0 0 .5-2.5c-.391-.588-3.209-16.116-3-16.5.356-.653 2.141-.982 2.5-2v-19.5h1v.5c3.068 3.074 1.592 15.219 1.5 21-5.926 5.5 2.552 14.554 0 20.5-1.322.874-4.847.563-7 .5v-.5h-.5V228zm37-40.5c3.356 1.255 2.5 5.546 2.5 10 0 9.705 1.3 21.726-.5 30.5a12.5 12.5 0 0 0-2.5 2h-14.5a24.655 24.655 0 0 1-2-2.5h2c2.939 1.957 10.934.107 13.5-.5 3.725-6.388 2.616-30.215 1.5-39.5zM588 230v-2c5.669.076 11.707-.053 16-1 3.282-5.614 3.152-31.109 1.5-39.5h1a7.507 7.507 0 0 1 1 2c1.26 2.012.5 7.533.5 10.5v27.5l-3 2.5h-17zm-129.5-42c-.829 2.433-.538 6.762-.5 10a10.75 10.75 0 0 0 3.5.5v-1c.733-1.139 1.479-7.223 1.5-9a14.455 14.455 0 0 0-4.5-.5zm32.5 28h3.5c2.042-6.118.543-16.835.5-24 1.292-.752 1.058-1.5 1-3.5a14.455 14.455 0 0 0-4.5-.5c-2.09 6.277-.54 20.355-.5 28zm34-28c-1.143 2.156-1.062 5.947-1 9.5a1.808 1.808 0 0 1 .5 1h3v-1c.733-1.139 1.479-7.223 1.5-9a12.541 12.541 0 0 0-4-.5zm35 28v-24h1v-3.5a12.541 12.541 0 0 0-4-.5c-2.493 4.82-1.055 20.416-1 27.5a12.541 12.541 0 0 0 4 .5zm33 0v-24c.827-1.522 1.309.3 1.5-3.5h-1c-.775-.525-2.043-.515-3.5-.5-2.493 4.82-1.055 20.416-1 27.5a12.541 12.541 0 0 0 4 .5zm83-17.5h3v-.5h.5c-.015-4.761 1.339-5.454 1.5-9.5a14.455 14.455 0 0 0-4.5-.5v.5h-.5v10zM420 197h1.5c1.48 2.174 3.886 2.967 4.5 6a18.485 18.485 0 0 0-5 5h-.5v-.5c-1.872-1.16-5-3.488-5.5-6 2.083-.688 3.912-2.8 5-4.5zm352.5 0h1.5a18.485 18.485 0 0 0 5 5v.5h-.5l-5 5.5a1.417 1.417 0 0 1-.5-.5c-2.325-1.418-5.1-4.09-5-6.5zm-80.5 8.5a2.417 2.417 0 0 1 1.5.5c3.108 3.261 1.662 16.427 1 21.5l-3 2.5c-3.613.082-11.494 1.121-14-.5-1.54-.519-1.459-.483-2-2h2c1.184.8 4.029.5 6 .5 2.7-.006 5.348.119 7-1 3.4-2.3 2.564-16.682 1.5-21.5zm-234 .5v10h3.5v-.5h.5c-.022-4.246.883-5.719 1-9.5h-5zm-28.5.5h1.5c.4.607 1.805 1.432 1.5 2.5-.181.634-5.083 5.3-6 5-4.2-1.374 2.092-6.26 3-7.5zm352.5 0h1.5c.8 1.149 1.071.755 1.5 2.5-1.035.787-4.5 5.448-6 5-4.25-1.271 2.156-6.317 3-7.5zM676 216h3.5c.919-1.46 1.369-1.452 1.5-4l-5-.5v4.5zm-38.5 42.5V257l3.5-3c20.395-.4 14.237 21.358 1.5 26-9.1 3.315-24.835 2.648-33-1-2.516-1.124-10.6-7.258-12-7.5-2.361-.408-5.458 3.552-7 4.5-4.541 2.794-11.062 4.412-16.5 6h-7c-11.417 0-21.279-2.387-25.5-9.5-3.263-5.5-1.34-15.037 3-17.5 2.093-1.188 5.261-1.064 8.5-1a1.808 1.808 0 0 0 1 .5l2.5 3v1H555c-1.052-1.368-2-1.514-4.5-1.5-.635.842-1.365 1.158-2 2-2.154 2.721-.888 9.263 4.5 8 10.667-2.5 20.78-18.112 36.5-14 3.01.787 5.19 3.125 8 4 2.325-3.065 10.814-5.823 17.5-4 10.823 2.951 16.154 13.161 28.5 14a16.642 16.642 0 0 0 2-2c3.241-3.756-.476-8.136-5-8a4.171 4.171 0 0 1-3 1.5z" transform="translate(-415 -129)"/></svg>